<svg width="118" height="110" viewBox="0 0 118 110" fill="none" xmlns="http://www.w3.org/2000/svg">
<g clip-path="url(#clip0_334_41)" filter="url(#filter0_d_334_41)">
<path d="M78.2013 30.6531C73.7696 30.6531 70.2681 34.2094 70.2681 38.641C70.2681 43.0727 73.8244 46.5743 78.2013 46.5743C82.5783 46.5743 86.1893 43.018 86.1893 38.5863C86.1893 34.1546 82.633 30.6531 78.2013 30.6531ZM78.2013 44.8235C74.7545 44.8235 71.9641 42.0332 71.9641 38.5863C71.9641 35.1395 74.8092 32.4039 78.2013 32.4039C81.6482 32.4039 84.4385 35.1942 84.4385 38.641C84.4385 42.0879 81.6482 44.8235 78.2013 44.8235Z" fill="url(#paint0_linear_334_41)"/>
<path d="M80.7181 39.8447C80.6634 39.6805 80.6634 39.5711 80.554 39.407C80.4993 39.2976 80.4445 39.1334 80.3351 39.024C80.2257 38.9146 80.171 38.8051 80.0616 38.6957C79.9521 38.5863 79.8427 38.4769 79.6786 38.4222C79.5692 38.3127 79.405 38.258 79.2956 38.2033C79.1315 38.1486 79.022 38.0392 78.8579 37.9845C78.6938 37.9297 78.5296 37.875 78.4202 37.8203C78.3655 37.8203 78.2561 37.7656 78.2013 37.7109C78.1466 37.6562 78.0372 37.6562 77.9825 37.6015C77.9278 37.5468 77.8184 37.5468 77.7637 37.4921C77.7089 37.4373 77.6542 37.3826 77.5995 37.3279C77.5448 37.2732 77.4901 37.2185 77.4901 37.1091C77.4354 37.0544 77.4354 36.9449 77.4354 36.8902C77.4354 36.7808 77.4354 36.7261 77.4354 36.6167C77.4354 36.5619 77.4901 36.4525 77.4901 36.3978C77.5448 36.3431 77.5448 36.2337 77.5995 36.179C77.6542 36.1243 77.7089 36.0695 77.7637 36.0148C77.8184 35.9601 77.9278 35.9054 78.0372 35.9054C78.1466 35.8507 78.2014 35.8507 78.3108 35.8507C78.3655 35.8507 78.4202 35.8507 78.4749 35.8507C78.5296 35.8507 78.5843 35.8507 78.639 35.8507C78.7485 35.8507 78.8032 35.8507 78.9126 35.9054C79.022 35.9054 79.1315 35.9601 79.1862 35.9601C79.2409 35.9601 79.3503 36.0148 79.405 36.0148C79.5144 36.0148 79.5692 36.0695 79.6239 36.0695L79.8974 36.179L79.9521 35.8507L80.0616 34.9753V34.7564L79.8427 34.7017C79.788 34.7017 79.6786 34.647 79.6239 34.647C79.5692 34.647 79.5144 34.5923 79.405 34.5923C79.3503 34.5923 79.2409 34.5376 79.1315 34.5376C79.022 34.5376 78.9673 34.4829 78.8579 34.4829H78.8032V33.7169V33.4434H78.5296H77.7637H77.4901V33.7169V34.5376H77.4354C77.2712 34.5923 77.1071 34.647 76.943 34.7564C76.7788 34.8112 76.6694 34.9206 76.56 35.03C76.4506 35.1394 76.3411 35.2489 76.2317 35.413C76.1223 35.5224 76.0676 35.6866 76.0129 35.8507C75.9582 36.0148 75.9034 36.179 75.8487 36.3431C75.794 36.5072 75.794 36.7261 75.794 36.8902C75.794 37.0544 75.794 37.1638 75.8487 37.3279C75.9034 37.4921 75.9034 37.6015 76.0129 37.7656C76.0676 37.875 76.177 38.0392 76.2317 38.1486C76.3411 38.258 76.3959 38.3674 76.5053 38.4769C76.6147 38.5863 76.7241 38.6957 76.8883 38.7504C76.9977 38.8599 77.1618 38.9146 77.2712 38.9693C77.4354 39.024 77.5995 39.1334 77.7089 39.1881C77.8731 39.2428 78.0372 39.2976 78.1466 39.3523C78.2013 39.3523 78.3108 39.407 78.3655 39.4617C78.4202 39.5164 78.5296 39.5164 78.5843 39.5711C78.639 39.6258 78.6938 39.6805 78.7485 39.6805C78.8032 39.7352 78.8579 39.79 78.9126 39.8447C78.9673 39.8994 78.9673 39.9541 79.022 40.0635C79.022 40.1182 79.0767 40.2277 79.0767 40.3371C79.0767 40.4465 79.0767 40.5012 79.0767 40.6106C79.0767 40.6654 79.022 40.7748 78.9673 40.8295C78.9126 40.8842 78.8579 40.9389 78.8032 40.9936C78.7485 41.0483 78.6938 41.103 78.5843 41.1578C78.5296 41.2125 78.4202 41.2125 78.3655 41.2672C78.3108 41.2672 78.2014 41.3219 78.0919 41.3219C78.0372 41.3219 77.9825 41.3219 77.8731 41.3219C77.8184 41.3219 77.7089 41.3219 77.6542 41.3219C77.5448 41.3219 77.4354 41.3219 77.3807 41.3219C77.2712 41.3219 77.1618 41.2672 77.1071 41.2672C76.9977 41.2672 76.8883 41.2125 76.7788 41.1578C76.6694 41.103 76.56 41.103 76.4506 41.0483C76.3959 41.0483 76.3411 40.9936 76.2864 40.9936C76.2317 40.9936 76.177 40.9389 76.1223 40.9389L75.794 40.7748L75.7393 41.1578L75.6299 42.1426V42.3067L75.794 42.3614C76.0129 42.3067 76.1223 42.3614 76.2864 42.4161C76.3959 42.4709 76.56 42.5256 76.6694 42.5256C76.7788 42.5803 76.943 42.5803 77.1071 42.635C77.2712 42.6897 77.3807 42.6897 77.5448 42.6897H77.6542V43.5104V43.7839H77.9278H78.6938H78.9673V43.5104V42.635H79.022C79.1862 42.5803 79.3503 42.5256 79.5144 42.4161C79.6786 42.3614 79.788 42.252 79.9521 42.1426C80.0616 42.0332 80.171 41.9237 80.2804 41.7596C80.3898 41.6502 80.4445 41.486 80.554 41.3219C80.6087 41.1578 80.6634 40.9936 80.7181 40.8295C80.7728 40.6654 80.7728 40.5012 80.7728 40.2824C80.7728 40.1182 80.7728 40.0088 80.7181 39.8447Z" fill="url(#paint1_linear_334_41)"/>
<path d="M74.3715 47.6139C74.0979 47.2309 73.4961 47.1762 73.1131 47.4498L64.2497 54.5076L52.8149 49.7477C52.5414 49.6383 52.2131 49.693 51.9942 49.8571L39.7387 58.611C39.3557 58.8846 39.2463 59.4317 39.5199 59.8147C39.684 60.0883 39.9576 60.1977 40.2311 60.1977C40.3953 60.1977 40.5594 60.143 40.7235 60.0336L52.5961 51.5532L64.0856 56.3131C64.3592 56.4226 64.7422 56.3679 64.961 56.2037L74.2073 48.8723C74.5903 48.5987 74.645 47.9969 74.3715 47.6139Z" fill="url(#paint2_linear_334_41)"/>
<path d="M87.1741 77.5962H83.1254V52.2646C83.1254 51.7721 82.7425 51.3892 82.25 51.3892H74.2074C73.715 51.3892 73.332 51.7721 73.332 52.2646V77.5962H70.3775V61.0185C70.3775 60.5261 69.9945 60.1431 69.5021 60.1431H61.4047C60.9123 60.1431 60.5293 60.5261 60.5293 61.0185V77.5962H57.5749V59.7054C57.5749 59.213 57.1919 58.83 56.6995 58.83H48.6568C48.1644 58.83 47.7814 59.213 47.7814 59.7054V77.5962H44.827V64.8483C44.827 64.3559 44.444 63.9729 43.9516 63.9729H35.8542C35.3618 63.9729 34.9788 64.3559 34.9788 64.8483V77.5962H30.8754C30.383 77.5962 30 77.9792 30 78.4716C30 78.9641 30.383 79.347 30.8754 79.347H35.7995H43.8422H48.6568H56.6995H61.4047H69.4474H74.1527H82.1953H87.1194C87.6118 79.347 87.9948 78.9641 87.9948 78.4716C88.0495 77.9792 87.6665 77.5962 87.1741 77.5962ZM43.0215 77.5962H36.7296V65.7237H43.0215V77.5962ZM55.8241 77.5962H49.5322V60.5808H55.8241V77.5962ZM68.572 77.5962H62.2801V61.8939H68.572V77.5962ZM81.3747 77.5962H75.0828V53.1399H81.3747V77.5962Z" fill="url(#paint3_linear_334_41)"/>
</g>
<defs>
<filter id="filter0_d_334_41" x="0" y="-4" width="118" height="118" filterUnits="userSpaceOnUse" color-interpolation-filters="sRGB">
<feFlood flood-opacity="0" result="BackgroundImageFix"/>
<feColorMatrix in="SourceAlpha" type="matrix" values="0 0 0 0 0 0 0 0 0 0 0 0 0 0 0 0 0 0 127 0" result="hardAlpha"/>
<feOffset/>
<feGaussianBlur stdDeviation="15"/>
<feColorMatrix type="matrix" values="0 0 0 0 0.752941 0 0 0 0 0.615686 0 0 0 0 0.301961 0 0 0 0.5 0"/>
<feBlend mode="normal" in2="BackgroundImageFix" result="effect1_dropShadow_334_41"/>
<feBlend mode="normal" in="SourceGraphic" in2="effect1_dropShadow_334_41" result="shape"/>
</filter>
<linearGradient id="paint0_linear_334_41" x1="75.474" y1="31.3165" x2="89.5763" y2="40.9507" gradientUnits="userSpaceOnUse">
<stop stop-color="#E3C070"/>
<stop offset="1" stop-color="#B0924C"/>
</linearGradient>
<linearGradient id="paint1_linear_334_41" x1="77.3115" y1="33.8742" x2="83.3015" y2="35.9095" gradientUnits="userSpaceOnUse">
<stop stop-color="#E3C070"/>
<stop offset="1" stop-color="#B0924C"/>
</linearGradient>
<linearGradient id="paint2_linear_334_41" x1="50.8694" y1="47.8171" x2="61.1155" y2="66.8758" gradientUnits="userSpaceOnUse">
<stop stop-color="#E3C070"/>
<stop offset="1" stop-color="#B0924C"/>
</linearGradient>
<linearGradient id="paint3_linear_334_41" x1="48.9651" y1="52.5541" x2="74.0095" y2="88.0491" gradientUnits="userSpaceOnUse">
<stop stop-color="#E3C070"/>
<stop offset="1" stop-color="#B0924C"/>
</linearGradient>
<clipPath id="clip0_334_41">
<rect width="58" height="58" fill="white" transform="translate(30 26)"/>
</clipPath>
</defs>
</svg>
