<svg width="37" height="37" viewBox="0 0 37 37" fill="none" xmlns="http://www.w3.org/2000/svg">
<g filter="url(#filter0_d_1992_3650)">
<path d="M18.5 27C23.1944 27 27 23.1944 27 18.5C27 13.8056 23.1944 10 18.5 10C13.8056 10 10 13.8056 10 18.5C10 23.1944 13.8056 27 18.5 27Z" fill="white"/>
<path d="M18.8553 17.458C20.3173 17.458 20.3037 19.838 20.3037 19.838L20.3207 20.8767H18.1294C17.6322 20.8236 17.1658 20.6098 16.801 20.2678C16.4362 19.9257 16.193 19.474 16.1081 18.9812C16.09 18.8687 16.0798 18.7551 16.0775 18.6412C16.0775 18.6276 16.0775 18.6157 16.0775 18.6021C16.0812 18.4669 16.0954 18.3321 16.12 18.1992C16.1302 18.138 16.1438 18.0802 16.1591 18.0292C16.1744 17.9782 16.1846 17.9357 16.1982 17.8915C16.2906 17.607 16.4372 17.3432 16.63 17.1146C16.8119 16.901 17.0307 16.7219 17.276 16.5859C17.6138 16.4009 17.9926 16.3039 18.3776 16.3037H22.5239C22.4171 16.1097 22.2978 15.9229 22.1669 15.7444C22.1295 15.6917 22.087 15.6441 22.0462 15.5931C21.9629 15.486 21.8762 15.3823 21.7861 15.2837C21.7249 15.2191 21.662 15.1562 21.5974 15.095C21.5549 15.0542 21.5107 15.0151 21.4665 14.976C21.179 14.7228 20.8622 14.5048 20.523 14.3266L20.4125 14.2722C20.3105 14.2212 20.2085 14.1736 20.1031 14.1311C19.5372 13.9136 18.9363 13.8012 18.33 13.7996C18.0988 13.7996 17.8778 13.8302 17.65 13.8591C17.4664 13.8863 17.2828 13.9169 17.106 13.9594C16.9734 13.99 16.8459 14.0308 16.7167 14.0716C15.6848 14.4324 14.8085 15.1375 14.2351 16.0684C13.6617 16.9992 13.4263 18.0991 13.5683 19.183C13.7103 20.267 14.2211 21.2691 15.0149 22.0208C15.8087 22.7726 16.837 23.2282 17.9271 23.3111H22.6701V19.8431H23.4436C23.4199 19.0336 23.2785 18.2318 23.0237 17.4631L18.8553 17.458Z" fill="#CDA349"/>
</g>
<defs>
<filter id="filter0_d_1992_3650" x="0" y="0" width="37" height="37" filterUnits="userSpaceOnUse" color-interpolation-filters="sRGB">
<feFlood flood-opacity="0" result="BackgroundImageFix"/>
<feColorMatrix in="SourceAlpha" type="matrix" values="0 0 0 0 0 0 0 0 0 0 0 0 0 0 0 0 0 0 127 0" result="hardAlpha"/>
<feOffset/>
<feGaussianBlur stdDeviation="5"/>
<feColorMatrix type="matrix" values="0 0 0 0 1 0 0 0 0 1 0 0 0 0 1 0 0 0 0.41 0"/>
<feBlend mode="normal" in2="BackgroundImageFix" result="effect1_dropShadow_1992_3650"/>
<feBlend mode="normal" in="SourceGraphic" in2="effect1_dropShadow_1992_3650" result="shape"/>
</filter>
</defs>
</svg>
