<svg width="147" height="17" viewBox="0 0 147 17" fill="none" xmlns="http://www.w3.org/2000/svg">
<path d="M8.388 0.165039V2.41312H3.2571V5.44571H8.21309V7.69378H3.2571V10.9901H8.56292V13.2381H0.873047V0.165039H8.388Z" fill="#CDA349"/>
<path d="M16.6156 13.2381V8.97925C16.6156 6.78392 15.7216 5.87414 14.4324 5.9137C13.7422 5.97275 13.0759 6.19878 12.4889 6.57296V13.2644H10.1243V3.90955H12.3852V4.64792C13.2073 4.03984 14.2075 3.73309 15.2228 3.7777C17.1663 3.88318 18.9284 5.40607 18.9284 9.00562V13.2447L16.6156 13.2381Z" fill="#CDA349"/>
<path d="M28.4387 12.335C27.4659 13.0553 26.2855 13.4263 25.0829 13.3898C22.5952 13.3898 20.0427 11.8669 20.0427 8.57065C20.0427 7.29252 20.5417 6.06674 21.4298 5.16297C22.3179 4.2592 23.5225 3.75146 24.7784 3.75146C29.2097 3.75146 30.609 9.44747 27.3698 9.44747H22.7118C22.7118 10.6209 23.8132 11.1747 24.9728 11.1747C25.6155 11.1896 26.2492 11.0181 26.7997 10.6803L28.4387 12.335ZM26.0547 7.2851C26.7025 7.2851 26.7025 6.84998 26.3203 6.46761C25.9006 6.07658 25.3472 5.86833 24.7784 5.88746C23.5216 5.88746 22.7377 6.69835 22.7313 7.2785L26.0547 7.2851Z" fill="#CDA349"/>
<path d="M32.4812 5.27411C32.808 4.81608 33.2352 4.4418 33.7288 4.1809C34.2225 3.92 34.769 3.77966 35.3252 3.771C36.1798 3.78238 36.9969 4.12964 37.6056 4.74011L35.9471 6.44759C35.7637 6.26587 35.5468 6.12282 35.3089 6.02666C35.071 5.93049 34.8167 5.8831 34.5607 5.88722C34.1529 5.95124 33.7629 6.10169 33.4158 6.32881C33.0687 6.55594 32.7724 6.85469 32.546 7.20574V13.2511H30.2202V3.90944H32.4812V5.27411Z" fill="#CDA349"/>
<path d="M38.6616 14.049C39.744 14.3572 40.8611 14.5212 41.985 14.5369C43.3325 14.4776 43.8443 13.8776 43.9285 12.6712C43.4167 13.2447 42.6328 13.3304 41.7129 13.3634C39.8212 13.3634 37.5926 12.1504 37.6444 8.40578C37.6963 4.76667 39.8018 3.75141 41.6934 3.75141C42.1384 3.74085 42.5809 3.82116 42.9949 3.98762C43.4088 4.15407 43.7857 4.40329 44.1034 4.72052V3.90963H46.2219V12.0581C46.2219 14.9258 45.0752 16.6729 41.9915 16.5938C40.8619 16.5253 39.7464 16.3036 38.6745 15.9345L38.6616 14.049ZM43.8831 6.72466C43.656 6.4489 43.3696 6.22998 43.0461 6.0848C42.7226 5.93962 42.3706 5.87209 42.0174 5.88741C40.6245 5.88741 40.022 6.94881 40.022 8.40578C40.022 9.86274 40.6245 11.1615 42.0044 11.1615C42.6805 11.1701 43.3406 10.9524 43.8831 10.5418V6.72466Z" fill="#CDA349"/>
<path d="M56.3023 3.90967V12.0779C56.3023 14.9457 54.7993 16.6927 51.5277 16.5938C50.3986 16.5214 49.2836 16.2998 48.2108 15.9346V14.0293C49.2924 14.3304 50.4065 14.4943 51.5277 14.5171C53.089 14.5171 53.8275 13.9304 54.0219 12.7437L54.0608 12.3482C53.3288 12.8857 52.4558 13.1887 51.5536 13.2184C49.4611 13.2711 47.5176 11.8208 47.5176 8.01026V3.90967H49.8304V8.01686C49.8304 10.232 50.7373 11.0692 51.9747 11.0692C52.6775 11.0348 53.3618 10.829 53.9701 10.4693V3.90967H56.3023Z" fill="#CDA349"/>
<path d="M71.0213 0.165039V13.2381H68.6373V3.40859L64.5688 8.36623L60.5069 3.38882V13.2381H58.1228V0.165039H60.8761L64.5688 4.84578L68.268 0.165039H71.0213Z" fill="#CDA349"/>
<path d="M73.0684 1.71394C73.0685 1.44368 73.1478 1.1796 73.2963 0.955491C73.4447 0.73138 73.6554 0.55743 73.9016 0.455906C74.1477 0.354382 74.418 0.329902 74.6779 0.38559C74.9378 0.441278 75.1754 0.574603 75.3604 0.76851C75.5454 0.962417 75.6693 1.20809 75.7164 1.47408C75.7634 1.74007 75.7313 2.01429 75.6243 2.26165C75.5174 2.50901 75.3403 2.71825 75.1157 2.86262C74.8912 3.00698 74.6295 3.07989 74.364 3.07202C74.0174 3.06009 73.6888 2.91196 73.4472 2.65873C73.2056 2.4055 73.0698 2.06688 73.0684 1.71394ZM73.2821 3.90268H75.5301V13.2378H73.2821V3.90268Z" fill="#CDA349"/>
<path d="M83.6996 13.2383V8.97944C83.6996 6.78411 82.8056 5.87433 81.5164 5.91389C80.8262 5.97293 80.1598 6.19896 79.5729 6.57314V13.2646H77.2212V3.90974H79.4886V4.64811C80.3102 4.03908 81.3107 3.73223 82.3262 3.77789C84.2697 3.88337 86.0318 5.40626 86.0318 9.00581V13.2449L83.6996 13.2383Z" fill="#CDA349"/>
<path d="M87.4182 1.71403C87.4182 1.44543 87.4965 1.18286 87.6431 0.959528C87.7898 0.736194 87.9982 0.562124 88.2421 0.459335C88.4859 0.356545 88.7542 0.329651 89.0131 0.382053C89.272 0.434454 89.5098 0.563801 89.6964 0.753731C89.8831 0.943661 90.0102 1.18564 90.0617 1.44908C90.1132 1.71252 90.0867 1.98559 89.9857 2.23374C89.8847 2.4819 89.7137 2.694 89.4942 2.84323C89.2747 2.99246 89.0167 3.07211 88.7528 3.07211C88.3993 3.07037 88.0609 2.92673 87.811 2.67242C87.5611 2.41811 87.4199 2.07368 87.4182 1.71403ZM87.6385 3.90277H89.88V13.2379H87.6385V3.90277Z" fill="#CDA349"/>
<path d="M98.0492 13.2381V8.97925C98.0492 6.78392 97.1552 5.87414 95.8725 5.9137C95.1819 5.97071 94.5151 6.1969 93.9289 6.57296V13.2644H91.5708V3.90955H93.8318V4.64792C94.6538 4.03984 95.654 3.73309 96.6693 3.7777C98.6128 3.88318 100.375 5.40607 100.381 9.00562V13.2447L98.0492 13.2381Z" fill="#CDA349"/>
<path d="M102.539 14.049C103.619 14.3571 104.734 14.5211 105.856 14.5369C107.21 14.4775 107.715 13.8776 107.799 12.6712C107.288 13.2447 106.471 13.3304 105.584 13.3634C103.692 13.3634 101.463 12.1503 101.515 8.40576C101.574 4.76664 103.679 3.75139 105.571 3.75139C106.015 3.74096 106.456 3.82137 106.869 3.98784C107.282 4.15431 107.658 4.40346 107.974 4.7205V3.90961H110.06V12.0581C110.06 14.9258 108.914 16.6729 105.83 16.5938C104.7 16.5242 103.585 16.3025 102.513 15.9345L102.539 14.049ZM107.722 6.72464C107.495 6.4506 107.209 6.2332 106.887 6.08918C106.565 5.94517 106.214 5.87839 105.862 5.89398C104.469 5.89398 103.86 6.95539 103.86 8.41235C103.86 9.86931 104.528 11.1615 105.875 11.1615C106.551 11.1701 107.211 10.9523 107.754 10.5418L107.722 6.72464Z" fill="#CDA349"/>
<path d="M122.57 11.9327C121.749 12.6116 120.779 13.0795 119.742 13.2971C118.706 13.5147 117.633 13.4756 116.615 13.183C115.596 12.8904 114.662 12.3529 113.89 11.6159C113.119 10.8788 112.533 9.96385 112.181 8.94801C111.83 7.93218 111.724 6.84528 111.872 5.77894C112.02 4.7126 112.417 3.69807 113.031 2.82088C113.645 1.94368 114.457 1.22952 115.399 0.738607C116.341 0.24769 117.385 -0.00559641 118.443 9.37968e-05C119.941 -0.00639312 121.395 0.515453 122.557 1.47683L120.912 3.14476C120.184 2.63956 119.324 2.37062 118.443 2.37343C117.344 2.41709 116.304 2.89219 115.541 3.69908C114.779 4.50597 114.353 5.58197 114.353 6.70146C114.353 7.82095 114.779 8.89696 115.541 9.70385C116.304 10.5107 117.344 10.9858 118.443 11.0295C119.044 11.0342 119.639 10.906 120.186 10.6537V7.00143H122.57V11.9327Z" fill="#CDA349"/>
<path d="M133.609 8.57023C133.616 9.53128 133.342 10.4726 132.822 11.2749C132.302 12.0771 131.559 12.7042 130.688 13.0765C129.818 13.4488 128.858 13.5496 127.931 13.3661C127.004 13.1826 126.151 12.7231 125.481 12.0459C124.811 11.3686 124.354 10.5041 124.167 9.562C123.981 8.61988 124.073 7.64259 124.433 6.75405C124.793 5.86551 125.404 5.10576 126.189 4.57113C126.974 4.0365 127.897 3.75107 128.841 3.75105C129.466 3.74758 130.085 3.86962 130.662 4.11017C131.24 4.35072 131.766 4.70504 132.209 5.15281C132.652 5.60057 133.004 6.13295 133.244 6.71941C133.484 7.30586 133.609 7.93483 133.609 8.57023ZM126.386 8.57023C126.39 9.06355 126.537 9.54467 126.809 9.95295C127.081 10.3612 127.466 10.6784 127.915 10.8645C128.364 11.0506 128.857 11.0972 129.332 10.9986C129.807 10.9 130.243 10.6605 130.584 10.3103C130.926 9.96004 131.158 9.51481 131.251 9.03068C131.344 8.54655 131.294 8.04518 131.108 7.58977C130.921 7.13437 130.607 6.7453 130.203 6.47162C129.8 6.19793 129.326 6.05188 128.841 6.05186C128.517 6.05008 128.195 6.11415 127.895 6.24033C127.595 6.3665 127.323 6.55226 127.094 6.78673C126.866 7.0212 126.685 7.29969 126.564 7.60592C126.442 7.91214 126.382 8.23997 126.386 8.57023Z" fill="#CDA349"/>
<path d="M134.892 0.165039H137.14V13.2381H134.892V0.165039Z" fill="#CDA349"/>
<path d="M146.903 0.165039V13.2381H144.836V12.4207C144.517 12.7361 144.14 12.9841 143.727 13.1505C143.313 13.3168 142.871 13.3981 142.426 13.3898C140.535 13.3898 138.429 12.3547 138.377 8.72882C138.326 4.99082 140.554 3.75141 142.446 3.77119C143.226 3.75409 143.986 4.02057 144.59 4.52274V0.165039H146.903ZM144.59 6.54667C144.043 6.1416 143.381 5.92871 142.705 5.94015C141.331 5.94015 140.729 7.33118 140.729 8.70244C140.729 10.0737 141.332 11.2208 142.724 11.2208C143.077 11.235 143.428 11.1676 143.751 11.0237C144.074 10.8798 144.361 10.6632 144.59 10.3902V6.54667Z" fill="#CDA349"/>
</svg>
