<svg width="80" height="81" viewBox="0 0 80 81" fill="none" xmlns="http://www.w3.org/2000/svg">
<g filter="url(#filter0_d_320:1)">
<ellipse cx="39.7491" cy="40.1604" rx="19.7491" ry="20.1604" fill="#343437"/>
<path d="M48.6362 33.9295C48.6362 32.4201 47.3315 31.0883 45.8529 31.0883H34.6328C33.1541 31.0883 31.8495 32.4201 31.8495 33.9295V45.3834C31.8495 46.8928 33.1541 48.2246 34.6328 48.2246H40.2863V41.743H38.1988V38.9017H40.2863V37.7475C40.2863 35.7941 41.6779 34.1071 43.4175 34.1071H45.6789V36.9484H43.4175C43.1566 36.9484 42.8956 37.2147 42.8956 37.7475V38.9017H45.6789V41.743H42.8956V48.2246H45.8529C47.3315 48.2246 48.6362 46.8928 48.6362 45.3834V33.9295Z" fill="#CCCCCC"/>
</g>
<defs>
<filter id="filter0_d_320:1" x="0" y="0" width="79.4982" height="80.3209" filterUnits="userSpaceOnUse" color-interpolation-filters="sRGB">
<feFlood flood-opacity="0" result="BackgroundImageFix"/>
<feColorMatrix in="SourceAlpha" type="matrix" values="0 0 0 0 0 0 0 0 0 0 0 0 0 0 0 0 0 0 127 0" result="hardAlpha"/>
<feOffset/>
<feGaussianBlur stdDeviation="10"/>
<feColorMatrix type="matrix" values="0 0 0 0 0 0 0 0 0 0 0 0 0 0 0 0 0 0 0.07 0"/>
<feBlend mode="normal" in2="BackgroundImageFix" result="effect1_dropShadow_320:1"/>
<feBlend mode="normal" in="SourceGraphic" in2="effect1_dropShadow_320:1" result="shape"/>
</filter>
</defs>
</svg>
