<svg width="121" height="107" viewBox="0 0 121 107" fill="none" xmlns="http://www.w3.org/2000/svg">
<g filter="url(#filter0_d_312:0)">
<path d="M90.9448 74.5872L87.6882 64.2616C87.5318 63.7658 87.0719 63.4286 86.552 63.4286H80.9126L77.9187 53.9361C77.7623 53.4402 77.3024 53.103 76.7825 53.103H71.1431L68.1492 43.6106C67.9927 43.1148 67.5329 42.7776 67.0129 42.7776H53.9871C53.4671 42.7776 53.0072 43.1148 52.8508 43.6106L49.8569 53.103H44.2175C43.6976 53.103 43.2377 53.4402 43.0813 53.9361L40.0875 63.4286H34.448C33.9281 63.4286 33.4682 63.7658 33.3117 64.2616L30.0552 74.5872C29.941 74.9491 30.0062 75.3438 30.2305 75.6499C30.455 75.956 30.8118 76.1368 31.1914 76.1368H50.7305H55.1391C55.7972 76.1368 56.3305 75.6035 56.3305 74.9454C56.3305 74.2874 55.7972 73.754 55.1391 73.754H52.3555L54.8606 65.8113H66.1395L68.6446 73.754H65.8619C65.2039 73.754 64.6705 74.2874 64.6705 74.9454C64.6705 75.6035 65.2039 76.1368 65.8619 76.1368H70.2687H89.8087C90.1883 76.1368 90.5451 75.956 90.7696 75.6499C90.9938 75.3438 91.059 74.9491 90.9448 74.5872ZM78.4141 63.4287H73.5261H67.0144C67.0139 63.4287 67.0134 63.4287 67.0129 63.4287H62.1251L64.6301 55.486H75.909L78.4141 63.4287ZM60.5 60.6589L58.8685 55.4858H62.1316L60.5 60.6589ZM54.8606 45.1604H66.1395L68.6446 53.1031H63.7567H57.2435H52.3555L54.8606 45.1604ZM45.0911 55.4858H56.37L58.875 63.4286H53.9872C53.9867 63.4286 53.9862 63.4286 53.9857 63.4286H47.474H42.586L45.0911 55.4858ZM32.8165 73.7541L35.3215 65.8114H46.6005L49.1055 73.7541H32.8165ZM50.7305 70.9845L49.099 65.8114H52.362L50.7305 70.9845ZM68.638 65.8115H71.901L70.2695 70.9845L68.638 65.8115ZM71.8946 73.7541L74.3997 65.8114H85.6786L88.1836 73.7541H71.8946Z" fill="url(#paint0_linear_312:0)"/>
<path d="M60.5 36.9582C61.158 36.9582 61.6914 36.4248 61.6914 35.7667V32.0544C61.6914 31.3964 61.158 30.863 60.5 30.863C59.842 30.863 59.3086 31.3964 59.3086 32.0544V35.7667C59.3086 36.4248 59.842 36.9582 60.5 36.9582Z" fill="url(#paint1_linear_312:0)"/>
<path d="M66.2585 38.1819C66.4462 38.2903 66.651 38.3417 66.8531 38.3417C67.2649 38.3417 67.6653 38.128 67.886 37.7458L69.7421 34.5309C70.0711 33.9611 69.8759 33.2324 69.306 32.9034C68.7362 32.5744 68.0075 32.7697 67.6785 33.3395L65.8225 36.5544C65.4934 37.1242 65.6887 37.8529 66.2585 38.1819Z" fill="url(#paint2_linear_312:0)"/>
<path d="M71.8262 42.1211C72.0283 42.1211 72.2332 42.0695 72.4209 41.9612L75.6357 40.1051C76.2056 39.7762 76.4009 39.0475 76.0718 38.4777C75.7429 37.9078 75.0141 37.7124 74.4443 38.0416L71.2295 39.8977C70.6596 40.2267 70.4643 40.9553 70.7934 41.5252C71.0139 41.9074 71.4144 42.1211 71.8262 42.1211Z" fill="url(#paint3_linear_312:0)"/>
<path d="M53.1139 37.7458C53.3345 38.128 53.7349 38.3417 54.1467 38.3417C54.3487 38.3417 54.5537 38.2901 54.7413 38.1819C55.3112 37.8529 55.5064 37.1242 55.1774 36.5544L53.3213 33.3395C52.9923 32.7695 52.2635 32.5744 51.6938 32.9034C51.124 33.2324 50.9287 33.9611 51.2578 34.5309L53.1139 37.7458Z" fill="url(#paint4_linear_312:0)"/>
<path d="M45.3642 40.1051L48.5791 41.9612C48.7668 42.0697 48.9716 42.1211 49.1737 42.1211C49.5855 42.1211 49.9859 41.9074 50.2066 41.5252C50.5356 40.9553 50.3404 40.2267 49.7705 39.8977L46.5556 38.0416C45.9859 37.7126 45.2572 37.9078 44.9282 38.4777C44.5991 39.0474 44.7944 39.7762 45.3642 40.1051Z" fill="url(#paint5_linear_312:0)"/>
<path d="M60.5008 73.7542H60.5C59.842 73.7542 59.3091 74.2875 59.3091 74.9456C59.3091 75.6036 59.8428 76.137 60.5008 76.137C61.1589 76.137 61.6923 75.6036 61.6923 74.9456C61.6923 74.2875 61.1589 73.7542 60.5008 73.7542Z" fill="url(#paint6_linear_312:0)"/>
</g>
<defs>
<filter id="filter0_d_312:0" x="0" y="-7" width="121" height="121" filterUnits="userSpaceOnUse" color-interpolation-filters="sRGB">
<feFlood flood-opacity="0" result="BackgroundImageFix"/>
<feColorMatrix in="SourceAlpha" type="matrix" values="0 0 0 0 0 0 0 0 0 0 0 0 0 0 0 0 0 0 127 0" result="hardAlpha"/>
<feOffset/>
<feGaussianBlur stdDeviation="15"/>
<feColorMatrix type="matrix" values="0 0 0 0 0.752941 0 0 0 0 0.615686 0 0 0 0 0.301961 0 0 0 0.5 0"/>
<feBlend mode="normal" in2="BackgroundImageFix" result="effect1_dropShadow_312:0"/>
<feBlend mode="normal" in="SourceGraphic" in2="effect1_dropShadow_312:0" result="shape"/>
</filter>
<linearGradient id="paint0_linear_312:0" x1="49.946" y1="44.1676" x2="80.8952" y2="82.8305" gradientUnits="userSpaceOnUse">
<stop stop-color="#E3C070"/>
<stop offset="1" stop-color="#B0924C"/>
</linearGradient>
<linearGradient id="paint1_linear_312:0" x1="60.0877" y1="31.117" x2="62.9773" y2="31.8887" gradientUnits="userSpaceOnUse">
<stop stop-color="#E3C070"/>
<stop offset="1" stop-color="#B0924C"/>
</linearGradient>
<linearGradient id="paint2_linear_312:0" x1="67.0488" y1="32.9768" x2="71.3935" y2="35.2246" gradientUnits="userSpaceOnUse">
<stop stop-color="#E3C070"/>
<stop offset="1" stop-color="#B0924C"/>
</linearGradient>
<linearGradient id="paint3_linear_312:0" x1="72.464" y1="38.0584" x2="76.4737" y2="41.6756" gradientUnits="userSpaceOnUse">
<stop stop-color="#E3C070"/>
<stop offset="1" stop-color="#B0924C"/>
</linearGradient>
<linearGradient id="paint4_linear_312:0" x1="52.4841" y1="32.9768" x2="56.8288" y2="35.2245" gradientUnits="userSpaceOnUse">
<stop stop-color="#E3C070"/>
<stop offset="1" stop-color="#B0924C"/>
</linearGradient>
<linearGradient id="paint5_linear_312:0" x1="46.5988" y1="38.0584" x2="50.6084" y2="41.6756" gradientUnits="userSpaceOnUse">
<stop stop-color="#E3C070"/>
<stop offset="1" stop-color="#B0924C"/>
</linearGradient>
<linearGradient id="paint6_linear_312:0" x1="60.0883" y1="73.8534" x2="62.199" y2="75.2956" gradientUnits="userSpaceOnUse">
<stop stop-color="#E3C070"/>
<stop offset="1" stop-color="#B0924C"/>
</linearGradient>
</defs>
</svg>
