<svg width="114" height="109" viewBox="0 0 114 109" fill="none" xmlns="http://www.w3.org/2000/svg">
<g clip-path="url(#clip0_334_1)" filter="url(#filter0_d_334_1)">
<path d="M32.6999 78.5392H37.1999C37.9635 78.5368 38.69 78.2096 39.1979 77.6393H61.7694C63.0899 77.6397 64.385 77.2764 65.5124 76.5891L82.379 66.3211C83.7075 65.5163 84.3122 63.9065 83.8418 62.426C83.3714 60.9457 81.9485 59.98 80.3991 60.0896V34.4401C80.3991 33.446 79.5932 32.6401 78.5991 32.6401H74.9992C74.005 32.6401 73.1992 33.446 73.1992 34.4401V62.3701L70.4992 63.2702V39.84C70.4992 38.8459 69.6933 38.04 68.6992 38.04H65.0993C64.1052 38.04 63.2993 38.8459 63.2993 39.84V65.6696L62.9051 65.801C62.63 65.8928 62.3419 65.9396 62.0519 65.9396H61.5577C61.9547 64.7447 61.8121 63.4362 61.1672 62.355C61.1529 62.324 61.1366 62.2939 61.1186 62.265C60.9657 62.0139 60.7919 61.7761 60.5993 61.554V45.2399C60.5993 44.2458 59.7934 43.4399 58.7993 43.4399H55.1994C54.2052 43.4399 53.3994 44.2458 53.3994 45.2399V59.6396H51.7794C51.4177 59.6367 51.0566 59.6066 50.6994 59.5497V50.6398C50.6994 49.6457 49.8935 48.8398 48.8994 48.8398H45.2995C44.3054 48.8398 43.4995 49.6457 43.4995 50.6398V56.2674C42.85 56.1187 42.1859 56.0424 41.5196 56.0397H39.734C39.3541 54.9648 38.3398 54.2445 37.1997 54.2397H32.6999C31.2089 54.2397 30 55.4486 30 56.9397V75.8393C30 77.3305 31.2089 78.5392 32.6999 78.5392ZM74.9992 34.4401H78.5991V60.5693L74.9992 61.7698V34.4401ZM65.0993 39.84H68.6992V63.8696L65.0993 65.0702V39.84ZM55.1995 45.2399H58.7994V60.1796C58.0788 59.8298 57.2892 59.6453 56.4882 59.6396H55.1994V45.2399H55.1995ZM45.2997 50.6398H48.8996V59.042C48.2941 58.7849 47.7265 58.4468 47.2122 58.0367C46.6253 57.5691 45.9831 57.1758 45.2997 56.8658V50.6398ZM46.0872 59.4426C47.7043 60.7327 49.7109 61.4367 51.7795 61.4396H56.4864C57.7414 61.443 58.9049 62.0967 59.5607 63.1666C59.5706 63.1891 59.5814 63.2099 59.5905 63.226C60.1559 64.0497 60.1305 65.1429 59.5275 65.9395H54.052C52.2752 65.9376 50.5378 66.4638 49.0607 67.4514L48.401 67.8906C48.1272 68.0662 47.9695 68.3759 47.9885 68.7007C48.0075 69.0254 48.2003 69.3146 48.4926 69.4571C48.785 69.5996 49.1316 69.5732 49.3991 69.3881L50.0588 68.949C51.2406 68.1589 52.6305 67.7379 54.052 67.7394H62.052C62.5355 67.7395 63.016 67.6617 63.4748 67.5089L80.1344 61.9551C80.7759 61.7417 81.482 61.9637 81.8858 62.5059C82.1506 62.8592 82.254 63.308 82.1704 63.7416C82.0867 64.1752 81.8239 64.5534 81.4467 64.7829L64.5764 75.0519C63.7308 75.5672 62.7596 75.8396 61.7694 75.8394H39.8998V57.8397H41.5198C43.1798 57.8419 44.7898 58.407 46.0872 59.4426ZM31.8 56.9397C31.8 56.4426 32.203 56.0397 32.6999 56.0397H37.1999C37.697 56.0397 38.0998 56.4426 38.0998 56.9397V75.8393C38.0998 76.3364 37.697 76.7392 37.1999 76.7392H32.6999C32.2029 76.7392 31.8 76.3364 31.8 75.8393V56.9397Z" fill="url(#paint0_linear_334_1)"/>
<path d="M34.5003 45.6403H36.3003C37.2944 45.6403 38.1003 44.8345 38.1003 43.8403V38.4404H39.0002C39.7096 38.442 40.3538 38.0268 40.6453 37.3801C40.9368 36.7334 40.8212 35.9757 40.3502 35.4453L36.7691 31.5557C36.4191 31.1809 35.9308 30.966 35.418 30.9614C34.9053 30.9567 34.4132 31.1628 34.0566 31.5313L30.4351 35.4706C29.9787 36.0042 29.8742 36.7545 30.1675 37.3924C30.4608 38.0304 31.0982 38.4396 31.8003 38.4406H32.7003V43.8404C32.7003 44.8345 33.5061 45.6403 34.5003 45.6403ZM31.7813 36.664L35.4227 32.75L39.0091 36.6407H37.2002C36.7032 36.6407 36.3003 37.0436 36.3003 37.5406V43.8404H34.5003V37.5405C34.5003 37.0434 34.0973 36.6406 33.6003 36.6406L31.7813 36.664Z" fill="url(#paint1_linear_334_1)"/>
<path d="M47.3014 45.6403H49.1014C50.0956 45.6403 50.9014 44.8345 50.9014 43.8403V38.4404H51.8014C52.5108 38.442 53.1549 38.0268 53.4465 37.3801C53.738 36.7334 53.6224 35.9757 53.1514 35.4453L49.5703 31.5557C49.2204 31.1809 48.7321 30.966 48.2193 30.9614C47.7065 30.9567 47.2143 31.1628 46.8578 31.5313L43.2363 35.4705C42.78 36.0041 42.6755 36.7544 42.9688 37.3923C43.2621 38.0303 43.8995 38.4395 44.6016 38.4404H45.5015V43.8403C45.5015 44.8345 46.3074 45.6403 47.3014 45.6403ZM44.5808 36.664L48.2222 32.75L51.8104 36.6407H50.0014C49.5043 36.6407 49.1014 37.0436 49.1014 37.5406V43.8404H47.3014V37.5405C47.3014 37.0434 46.8985 36.6406 46.4015 36.6406L44.5808 36.664Z" fill="url(#paint2_linear_334_1)"/>
</g>
<defs>
<filter id="filter0_d_334_1" x="0" y="-2" width="114" height="114" filterUnits="userSpaceOnUse" color-interpolation-filters="sRGB">
<feFlood flood-opacity="0" result="BackgroundImageFix"/>
<feColorMatrix in="SourceAlpha" type="matrix" values="0 0 0 0 0 0 0 0 0 0 0 0 0 0 0 0 0 0 127 0" result="hardAlpha"/>
<feOffset/>
<feGaussianBlur stdDeviation="15"/>
<feColorMatrix type="matrix" values="0 0 0 0 0.752941 0 0 0 0 0.615686 0 0 0 0 0.301961 0 0 0 0.5 0"/>
<feBlend mode="normal" in2="BackgroundImageFix" result="effect1_dropShadow_334_1"/>
<feBlend mode="normal" in="SourceGraphic" in2="effect1_dropShadow_334_1" result="shape"/>
</filter>
<linearGradient id="paint0_linear_334_1" x1="47.6572" y1="34.5526" x2="90.2778" y2="68.8091" gradientUnits="userSpaceOnUse">
<stop stop-color="#E3C070"/>
<stop offset="1" stop-color="#B0924C"/>
</linearGradient>
<linearGradient id="paint1_linear_334_1" x1="33.5348" y1="31.5729" x2="44.7366" y2="37.2041" gradientUnits="userSpaceOnUse">
<stop stop-color="#E3C070"/>
<stop offset="1" stop-color="#B0924C"/>
</linearGradient>
<linearGradient id="paint2_linear_334_1" x1="46.336" y1="31.5729" x2="57.5378" y2="37.2041" gradientUnits="userSpaceOnUse">
<stop stop-color="#E3C070"/>
<stop offset="1" stop-color="#B0924C"/>
</linearGradient>
<clipPath id="clip0_334_1">
<rect width="54" height="54" fill="white" transform="translate(30 28)"/>
</clipPath>
</defs>
</svg>
