<svg width="80" height="81" viewBox="0 0 80 81" fill="none" xmlns="http://www.w3.org/2000/svg">
<g filter="url(#filter0_d_320_7)">
<ellipse cx="39.7491" cy="40.1604" rx="19.7491" ry="20.1604" fill="#343437"/>
<path d="M46.2473 32.0963H34.2384C32.8825 32.0963 31.8495 33.1508 31.8495 34.5349V46.794C31.8495 48.1781 32.8825 49.2326 34.2384 49.2326H46.2473C47.6031 49.2326 48.6362 48.1781 48.6362 46.794V34.5349C48.6362 33.1508 47.6031 32.0963 46.2473 32.0963ZM40.2428 45.8053C43.0191 45.8053 45.2788 43.5644 45.2788 40.8622C45.2788 40.4008 45.2143 39.8735 45.0851 39.4781H46.5055V46.4644C46.5055 46.794 46.2473 47.1235 45.8599 47.1235H34.6257C34.3029 47.1235 33.9801 46.8599 33.9801 46.4644V39.4122H35.4651C35.336 39.8735 35.2714 40.3349 35.2714 40.7963C35.2068 43.5644 37.4666 45.8053 40.2428 45.8053ZM40.2428 43.8281C38.435 43.8281 37.0146 42.3781 37.0146 40.5985C37.0146 38.819 38.435 37.369 40.2428 37.369C42.0506 37.369 43.471 38.819 43.471 40.5985C43.471 42.444 42.0506 43.8281 40.2428 43.8281ZM46.441 36.7758C46.441 37.1713 46.1182 37.5008 45.7308 37.5008H43.923C43.5356 37.5008 43.2128 37.1713 43.2128 36.7758V34.9963C43.2128 34.6008 43.5356 34.2713 43.923 34.2713H45.7308C46.1182 34.2713 46.441 34.6008 46.441 34.9963V36.7758Z" fill="#CCCCCC"/>
</g>
<defs>
<filter id="filter0_d_320_7" x="0" y="0" width="79.4982" height="80.3209" filterUnits="userSpaceOnUse" color-interpolation-filters="sRGB">
<feFlood flood-opacity="0" result="BackgroundImageFix"/>
<feColorMatrix in="SourceAlpha" type="matrix" values="0 0 0 0 0 0 0 0 0 0 0 0 0 0 0 0 0 0 127 0" result="hardAlpha"/>
<feOffset/>
<feGaussianBlur stdDeviation="10"/>
<feColorMatrix type="matrix" values="0 0 0 0 0 0 0 0 0 0 0 0 0 0 0 0 0 0 0.07 0"/>
<feBlend mode="normal" in2="BackgroundImageFix" result="effect1_dropShadow_320_7"/>
<feBlend mode="normal" in="SourceGraphic" in2="effect1_dropShadow_320_7" result="shape"/>
</filter>
</defs>
</svg>
