<svg width="113" height="113" viewBox="0 0 113 113" fill="none" xmlns="http://www.w3.org/2000/svg">
<g filter="url(#filter0_d_334_11)">
<path d="M31.7667 75.9333V72.4H33.5333V70.6333H31.7667V67.1H35.3V65.3333H31.7667V61.8H33.5333V60.0333H31.7667V56.5H35.3V54.7333H31.7667V51.2H33.5333V49.4333H31.7667V45.9H35.3V44.1333H31.7667V40.6H33.5333V38.8333H31.7667V35.3H35.3V33.5333H31.7667V30H30V76.8167C30 77.3045 30.3955 77.7 30.8833 77.7H83V75.9333H31.7667Z" fill="url(#paint0_linear_334_11)"/>
<path d="M40.5999 79.4666H38.8333V82.9999H40.5999V79.4666Z" fill="url(#paint1_linear_334_11)"/>
<path d="M44.1334 79.4666H42.3667V82.9999H44.1334V79.4666Z" fill="url(#paint2_linear_334_11)"/>
<path d="M52.9666 79.4666H51.2V82.9999H52.9666V79.4666Z" fill="url(#paint3_linear_334_11)"/>
<path d="M56.5001 79.4666H54.7334V82.9999H56.5001V79.4666Z" fill="url(#paint4_linear_334_11)"/>
<path d="M65.3333 79.4666H63.5667V82.9999H65.3333V79.4666Z" fill="url(#paint5_linear_334_11)"/>
<path d="M68.8668 79.4666H67.1001V82.9999H68.8668V79.4666Z" fill="url(#paint6_linear_334_11)"/>
<path d="M77.7 79.4666H75.9333V82.9999H77.7V79.4666Z" fill="url(#paint7_linear_334_11)"/>
<path d="M81.2332 79.4666H79.4666V82.9999H81.2332V79.4666Z" fill="url(#paint8_linear_334_11)"/>
<path d="M39.5538 73.6033C40.1288 73.9739 40.7991 74.1697 41.4833 74.1667C43.4347 74.1667 45.0166 72.5848 45.0166 70.6334C45.0128 70.0517 44.8634 69.4802 44.582 68.971L51.654 63.6665C53.168 64.8774 55.3771 64.6316 56.588 63.1175C56.6948 62.9839 56.7918 62.8426 56.878 62.6949L62.6895 64.3617C62.6895 64.3909 62.6833 64.42 62.6833 64.4501C62.6833 66.4014 64.2652 67.9834 66.2166 67.9834C68.168 67.9834 69.75 66.4014 69.75 64.4501V64.4439C69.7429 63.6845 69.4914 62.9476 69.0327 62.3424L76.8944 52.518C77.4103 52.808 77.9915 52.9624 78.5833 52.9667C80.5493 52.9814 82.1549 51.3995 82.1695 49.4335C82.1841 47.4675 80.6023 45.8618 78.6363 45.8473C76.6703 45.8326 75.0646 47.4145 75.0501 49.3805C75.045 50.062 75.2357 50.7307 75.5994 51.3069L67.6494 61.2444C67.5063 61.178 67.3587 61.1216 67.2077 61.0757C65.6628 60.6299 64.0117 61.2833 63.1903 62.6657L57.3771 61.005C57.3771 60.9759 57.3833 60.9467 57.3833 60.9167C57.3858 59.3415 56.3499 57.9531 54.8393 57.507C52.9806 56.9507 51.0227 58.0065 50.4663 59.8651C50.2313 60.6505 50.2782 61.4934 50.5992 62.2479L43.3823 67.6636C41.7422 66.6064 39.5554 67.0788 38.4982 68.7191C37.441 70.3592 37.9136 72.5459 39.5538 73.6033ZM78.5833 47.6667C79.559 47.6667 80.35 48.4576 80.35 49.4334C80.35 50.4091 79.559 51.2 78.5833 51.2C77.6075 51.2 76.8166 50.4091 76.8166 49.4334C76.8166 48.4576 77.6075 47.6667 78.5833 47.6667ZM64.5206 63.973C64.7928 63.0452 65.7657 62.5138 66.6934 62.786C67.6212 63.0581 68.1527 64.031 67.8805 64.9587C67.6083 65.8866 66.6354 66.418 65.7077 66.1458C64.9542 65.9248 64.44 65.229 64.45 64.4439C64.4492 64.2842 64.473 64.1254 64.5206 63.973ZM52.1537 60.4053C52.1538 60.4049 52.154 60.4046 52.1541 60.4044C52.2837 59.9538 52.5884 59.5739 53.0003 59.3497C53.8557 58.8803 54.9296 59.1933 55.399 60.0487C55.5439 60.3127 55.6188 60.6094 55.6167 60.9105V60.9229C55.6175 61.0826 55.5937 61.2413 55.5461 61.3937C55.2731 62.3305 54.2925 62.8686 53.3557 62.5956C52.4188 62.3228 51.8808 61.342 52.1537 60.4053ZM41.4833 68.8667C42.459 68.8667 43.25 69.6576 43.25 70.6334C43.25 71.6091 42.459 72.4001 41.4833 72.4001C40.5075 72.4001 39.7166 71.6091 39.7166 70.6334C39.7166 69.6576 40.5075 68.8667 41.4833 68.8667Z" fill="url(#paint9_linear_334_11)"/>
<path d="M41.4833 60.9167C43.4258 60.9256 45.0079 59.358 45.0168 57.4153C45.0209 56.5358 44.6953 55.6867 44.1041 55.0354L52.7705 41.2969C53.8655 41.6764 55.0786 41.4687 55.985 40.7466L62.9854 46.2533C62.196 48.032 62.9981 50.1139 64.7769 50.9033C65.2302 51.1045 65.7207 51.2076 66.2166 51.2062H66.2246C68.1753 51.2018 69.7534 49.6174 69.75 47.6667C69.7492 47.3492 69.7051 47.0333 69.6192 46.7277L75.9845 42.9965C76.6522 43.7253 77.5947 44.1412 78.5833 44.143H78.5965C80.5509 44.1386 82.1316 42.5508 82.1272 40.5965C82.1228 38.6421 80.535 37.0614 78.5806 37.0658C76.6274 37.0702 75.0471 38.6564 75.0499 40.6097C75.0532 40.8884 75.0884 41.1659 75.1551 41.4365L68.7341 45.1933C68.0695 44.5197 67.1629 44.1402 66.2166 44.1395H66.2069C65.4388 44.1444 64.6939 44.402 64.0869 44.8727L57.0838 39.3633C57.8719 37.5781 57.0635 35.4921 55.2784 34.704C53.4933 33.9158 51.4072 34.7243 50.619 36.5094C50.0462 37.807 50.3049 39.3214 51.2759 40.3552L42.6316 54.0576C42.2632 53.9244 41.875 53.8543 41.4833 53.85C39.5319 53.85 37.95 55.4319 37.95 57.3833C37.95 59.3347 39.5319 60.9167 41.4833 60.9167ZM78.5833 38.8333C79.559 38.8333 80.35 39.6242 80.35 40.6C80.3534 41.5756 79.5652 42.3694 78.5895 42.3728H78.5833C77.9511 42.3737 77.3667 42.037 77.0507 41.4895C76.9009 41.2167 76.8205 40.9113 76.8166 40.6C76.8166 39.6242 77.6075 38.8333 78.5833 38.8333ZM66.2166 45.9062C67.1924 45.9062 67.9833 46.6971 67.9833 47.6728C67.9833 48.6486 67.1924 49.4395 66.2166 49.4395C65.2409 49.4395 64.45 48.6486 64.45 47.6728C64.45 46.6971 65.2409 45.9062 66.2166 45.9062ZM53.85 36.1833C54.8257 36.1833 55.6166 36.9742 55.6166 37.95C55.6166 38.9257 54.8257 39.7167 53.85 39.7167C52.8742 39.7167 52.0833 38.9257 52.0833 37.95C52.0833 36.9742 52.8742 36.1833 53.85 36.1833ZM41.4833 55.6167C42.459 55.6167 43.25 56.4076 43.25 57.3833C43.25 58.3591 42.459 59.15 41.4833 59.15C40.5075 59.15 39.7166 58.3591 39.7166 57.3833C39.7166 56.4076 40.5075 55.6167 41.4833 55.6167Z" fill="url(#paint10_linear_334_11)"/>
</g>
<defs>
<filter id="filter0_d_334_11" x="0" y="0" width="113" height="113" filterUnits="userSpaceOnUse" color-interpolation-filters="sRGB">
<feFlood flood-opacity="0" result="BackgroundImageFix"/>
<feColorMatrix in="SourceAlpha" type="matrix" values="0 0 0 0 0 0 0 0 0 0 0 0 0 0 0 0 0 0 127 0" result="hardAlpha"/>
<feOffset/>
<feGaussianBlur stdDeviation="15"/>
<feColorMatrix type="matrix" values="0 0 0 0 0.752941 0 0 0 0 0.615686 0 0 0 0 0.301961 0 0 0 0.5 0"/>
<feBlend mode="normal" in2="BackgroundImageFix" result="effect1_dropShadow_334_11"/>
<feBlend mode="normal" in="SourceGraphic" in2="effect1_dropShadow_334_11" result="shape"/>
</filter>
<linearGradient id="paint0_linear_334_11" x1="47.3302" y1="31.9875" x2="91.0142" y2="65.1474" gradientUnits="userSpaceOnUse">
<stop stop-color="#E3C070"/>
<stop offset="1" stop-color="#B0924C"/>
</linearGradient>
<linearGradient id="paint1_linear_334_11" x1="39.4109" y1="79.6138" x2="41.4663" y2="80.3159" gradientUnits="userSpaceOnUse">
<stop stop-color="#E3C070"/>
<stop offset="1" stop-color="#B0924C"/>
</linearGradient>
<linearGradient id="paint2_linear_334_11" x1="42.9444" y1="79.6138" x2="44.9997" y2="80.3159" gradientUnits="userSpaceOnUse">
<stop stop-color="#E3C070"/>
<stop offset="1" stop-color="#B0924C"/>
</linearGradient>
<linearGradient id="paint3_linear_334_11" x1="51.7776" y1="79.6138" x2="53.833" y2="80.3159" gradientUnits="userSpaceOnUse">
<stop stop-color="#E3C070"/>
<stop offset="1" stop-color="#B0924C"/>
</linearGradient>
<linearGradient id="paint4_linear_334_11" x1="55.3111" y1="79.6138" x2="57.3664" y2="80.3159" gradientUnits="userSpaceOnUse">
<stop stop-color="#E3C070"/>
<stop offset="1" stop-color="#B0924C"/>
</linearGradient>
<linearGradient id="paint5_linear_334_11" x1="64.1443" y1="79.6138" x2="66.1997" y2="80.3159" gradientUnits="userSpaceOnUse">
<stop stop-color="#E3C070"/>
<stop offset="1" stop-color="#B0924C"/>
</linearGradient>
<linearGradient id="paint6_linear_334_11" x1="67.6778" y1="79.6138" x2="69.7331" y2="80.3159" gradientUnits="userSpaceOnUse">
<stop stop-color="#E3C070"/>
<stop offset="1" stop-color="#B0924C"/>
</linearGradient>
<linearGradient id="paint7_linear_334_11" x1="76.511" y1="79.6138" x2="78.5664" y2="80.3159" gradientUnits="userSpaceOnUse">
<stop stop-color="#E3C070"/>
<stop offset="1" stop-color="#B0924C"/>
</linearGradient>
<linearGradient id="paint8_linear_334_11" x1="80.0442" y1="79.6138" x2="82.0996" y2="80.3159" gradientUnits="userSpaceOnUse">
<stop stop-color="#E3C070"/>
<stop offset="1" stop-color="#B0924C"/>
</linearGradient>
<linearGradient id="paint9_linear_334_11" x1="52.3986" y1="47.0272" x2="79.2687" y2="75.7009" gradientUnits="userSpaceOnUse">
<stop stop-color="#E3C070"/>
<stop offset="1" stop-color="#B0924C"/>
</linearGradient>
<linearGradient id="paint10_linear_334_11" x1="52.3952" y1="35.5069" x2="77.3959" y2="63.9644" gradientUnits="userSpaceOnUse">
<stop stop-color="#E3C070"/>
<stop offset="1" stop-color="#B0924C"/>
</linearGradient>
</defs>
</svg>
