<svg width="100" height="100" viewBox="0 0 100 100" fill="none" xmlns="http://www.w3.org/2000/svg">
<path d="M50 100C77.6142 100 100 77.6142 100 50C100 22.3858 77.6142 0 50 0C22.3858 0 0 22.3858 0 50C0 77.6142 22.3858 100 50 100Z" fill="#CDA349"/>
<path d="M52.09 43.8701C60.69 43.8701 60.61 57.8701 60.61 57.8701L60.71 63.9801H47.82C44.895 63.6681 42.1515 62.4106 40.0058 60.3984C37.86 58.3862 36.4291 55.7291 35.93 52.8301C35.8237 52.1684 35.7635 51.5001 35.75 50.8301C35.75 50.7501 35.75 50.6801 35.75 50.6001C35.7715 49.8048 35.8551 49.0124 36 48.2301C36.06 47.8701 36.14 47.5301 36.23 47.2301C36.32 46.9301 36.38 46.6801 36.46 46.4201C37.0034 44.7469 37.866 43.195 39 41.8501C40.07 40.594 41.3572 39.5405 42.8 38.7401C44.7867 37.6523 47.015 37.0815 49.28 37.0801H73.67C73.0416 35.9394 72.3401 34.8404 71.57 33.7901C71.35 33.4801 71.1 33.2001 70.86 32.9001C70.37 32.2701 69.86 31.6601 69.33 31.0801C68.97 30.7001 68.6 30.3301 68.22 29.9701C67.97 29.7301 67.71 29.5001 67.45 29.2701C65.7585 27.7807 63.8953 26.4983 61.9 25.4501L61.25 25.1301C60.65 24.8301 60.05 24.5501 59.43 24.3001C56.101 23.0207 52.5664 22.3599 49 22.3501C47.64 22.3501 46.34 22.5301 45 22.7001C43.92 22.8601 42.84 23.0401 41.8 23.2901C41.02 23.4701 40.27 23.7101 39.51 23.9501C33.4396 26.0729 28.2849 30.2206 24.9122 35.6961C21.5396 41.1716 20.1545 47.6413 20.9898 54.0177C21.8252 60.3941 24.83 66.2886 29.4992 70.7106C34.1685 75.1326 40.2177 77.8126 46.63 78.3001H74.53V57.9001H79.08C78.9405 53.1383 78.1085 48.4222 76.61 43.9001L52.09 43.8701Z" fill="#313131"/>
</svg>
