<svg width="31" height="31" viewBox="0 0 31 31" fill="none" xmlns="http://www.w3.org/2000/svg">
<path d="M27.3095 16.9761V21.4046C27.3095 23.3237 22.6831 25.8332 16.9762 25.8332C11.2692 25.8332 6.64285 23.3237 6.64285 21.4046V17.7142" stroke="white" stroke-width="2" stroke-linecap="round" stroke-linejoin="round"/>
<path d="M7.07683 18.0963C8.35373 19.791 12.3025 21.3808 16.9762 21.3808C22.6831 21.3808 27.3095 19.0101 27.3095 16.9729C27.3095 15.8289 25.8525 14.5756 23.5659 13.6958" stroke="white" stroke-width="2" stroke-linecap="round" stroke-linejoin="round"/>
<path d="M22.8809 9.59521V14.0238C22.8809 15.9428 18.2546 18.4524 12.5476 18.4524C6.84066 18.4524 2.21428 15.9428 2.21428 14.0238V9.59521" stroke="white" stroke-width="2" stroke-linecap="round" stroke-linejoin="round"/>
<path fill-rule="evenodd" clip-rule="evenodd" d="M12.5476 14C18.2546 14 22.8809 11.6293 22.8809 9.59212C22.8809 7.5535 18.2546 5.1665 12.5476 5.1665C6.84066 5.1665 2.21428 7.5535 2.21428 9.59212C2.21428 11.6293 6.84066 14 12.5476 14Z" stroke="white" stroke-width="2" stroke-linecap="round" stroke-linejoin="round"/>
</svg>
