<svg width="83" height="83" viewBox="0 0 83 83" fill="none" xmlns="http://www.w3.org/2000/svg">
<path d="M55.4338 53.2298C53.4673 53.2298 51.8674 51.845 51.8674 50.1431C51.8674 48.4409 53.4673 47.0562 55.4338 47.0562C57.4004 47.0562 59.0002 48.4409 59.0002 50.1431C59.0002 51.0382 59.7262 51.7641 60.6213 51.7641C61.5165 51.7641 62.2424 51.0382 62.2424 50.1431C62.2424 47.1724 60.029 44.6746 57.0549 43.9967V43.1536C57.0549 42.2584 56.329 41.5325 55.4338 41.5325C54.5387 41.5325 53.8127 42.2584 53.8127 43.1536V43.9967C50.8387 44.6746 48.6252 47.1724 48.6252 50.1431C48.6252 53.6328 51.6795 56.472 55.4338 56.472C57.4004 56.472 59.0002 57.8567 59.0002 59.5588C59.0002 61.261 57.4004 62.6457 55.4338 62.6457C53.4673 62.6457 51.8674 61.261 51.8674 59.5588C51.8674 58.6637 51.1415 57.9377 50.2463 57.9377C49.3512 57.9377 48.6252 58.6637 48.6252 59.5588C48.6252 62.5295 50.8387 65.0273 53.8127 65.7052V66.4055C53.8127 67.3007 54.5387 68.0266 55.4338 68.0266C56.329 68.0266 57.0549 67.3007 57.0549 66.4055V65.7052C60.029 65.0273 62.2424 62.5295 62.2424 59.5588C62.2424 56.0689 59.1881 53.2298 55.4338 53.2298Z" fill="#212123"/>
<path d="M73.1893 43.5873C71.0717 40.2876 68.0882 37.6471 64.5615 35.9518C63.7544 35.5637 62.7858 35.9035 62.398 36.7105C62.0101 37.5174 62.3497 38.4859 63.1567 38.8738C69.3024 41.8281 73.2733 48.1404 73.2733 54.9552C73.2733 57.8712 72.5545 60.7631 71.1949 63.3186C70.7743 64.1088 71.0741 65.0906 71.8645 65.5111C72.107 65.6401 72.3677 65.7014 72.6245 65.7014C73.2045 65.7014 73.7656 65.3892 74.0571 64.8414C75.6653 61.819 76.5154 58.4003 76.5154 54.9552C76.5154 50.9089 75.3653 46.978 73.1893 43.5873Z" fill="#212123"/>
<path d="M57.9821 33.8811L57.873 33.881C56.9779 33.881 56.252 34.6067 56.252 35.5021C56.252 36.3974 56.9779 37.1232 57.873 37.1232L57.9669 37.1233C57.9695 37.1233 57.9719 37.1233 57.9747 37.1233C58.8665 37.1233 59.5914 36.4026 59.5956 35.5099C59.5997 34.6145 58.8773 33.8854 57.9821 33.8811Z" fill="#212123"/>
<path d="M47.726 71.0365C41.5805 68.0821 37.6096 61.7697 37.6096 54.9552C37.6096 52.0391 38.3284 49.1473 39.688 46.5918C40.1085 45.8015 39.8088 44.8198 39.0183 44.3993C38.2282 43.9788 37.2462 44.2785 36.8258 45.0689C35.2175 48.0915 34.3674 51.51 34.3674 54.9552C34.3674 59.0014 35.5176 62.9322 37.6936 66.3231C39.8112 69.6228 42.7947 72.2632 46.3214 73.9587C46.5478 74.0676 46.7871 74.119 47.0226 74.119C47.6263 74.119 48.2057 73.7804 48.4849 73.2C48.8725 72.3931 48.533 71.4245 47.726 71.0365Z" fill="#212123"/>
<path d="M53.0101 72.7871L52.9162 72.7867C52.0169 72.7851 51.2919 73.5047 51.2879 74.4002C51.2836 75.2956 52.0063 76.0247 52.9015 76.0289L53.0101 76.0293C53.9053 76.0293 54.6312 75.3033 54.6312 74.4082C54.6312 73.513 53.9053 72.7871 53.0101 72.7871Z" fill="#212123"/>
<path d="M62.8025 28.3963C62.6052 27.9262 62.3635 27.4832 62.0823 27.0722H66.3026C70.4143 27.0722 73.7596 23.7269 73.7596 19.6152C73.7596 15.5035 70.4143 12.1582 66.3026 12.1582H53.3209C54.1462 10.9582 54.6308 9.50656 54.6308 7.94335C54.6308 3.83161 51.2855 0.486328 47.1737 0.486328H7.45702C3.34528 0.486328 0 3.83161 0 7.94335C0 12.0551 3.34528 15.4004 7.45702 15.4004H20.4387C19.6134 16.6003 19.1289 18.052 19.1289 19.6152C19.1289 21.1784 19.6133 22.6301 20.4387 23.83H16.2109C12.0992 23.83 8.75389 27.1753 8.75389 31.2871C8.75389 33.6485 9.8585 35.7557 11.577 37.123C9.8585 38.4902 8.75389 40.5975 8.75389 42.9589C8.75389 45.3203 9.8585 47.4276 11.577 48.7948C9.8585 50.1621 8.75389 52.2693 8.75389 54.6308C8.75389 56.9922 9.8585 59.0995 11.577 60.4667C9.8585 61.8339 8.75389 63.9412 8.75389 66.3026C8.75389 70.4143 12.0992 73.7596 16.2109 73.7596H35.3155C40.3483 79.1428 47.508 82.5137 55.4415 82.5137C70.6372 82.5137 83 70.1509 83 54.9551C83 42.3079 74.4358 31.6247 62.8025 28.3963ZM66.3026 15.4004C68.6268 15.4004 70.5174 17.2912 70.5174 19.6152C70.5174 21.9392 68.6268 23.83 66.3026 23.83H55.9276H26.5859C24.2617 23.83 22.371 21.9392 22.371 19.6152C22.371 17.2912 24.2617 15.4004 26.5859 15.4004H66.3026ZM7.45702 12.1582C5.13286 12.1582 3.24218 10.2673 3.24218 7.94335C3.24218 5.61935 5.13286 3.72851 7.45702 3.72851H47.1737C49.4979 3.72851 51.3886 5.61935 51.3886 7.94335C51.3886 10.2673 49.4979 12.1582 47.1737 12.1582H7.45702ZM16.2109 27.0722H55.9276C56.5806 27.0722 57.2059 27.2239 57.7668 27.4956C57 27.4313 56.2248 27.3966 55.4415 27.3966C47.8313 27.3966 40.9319 30.4976 35.9399 35.5019H16.2109C13.8869 35.5019 11.9961 33.611 11.9961 31.2871C11.9961 28.9631 13.8869 27.0722 16.2109 27.0722ZM16.2109 38.7441H33.1699C31.3297 41.2654 29.9069 44.1091 29.0033 47.1737H16.2109C13.8867 47.1737 11.9961 45.2831 11.9961 42.9589C11.9961 40.6349 13.8867 38.7441 16.2109 38.7441ZM16.2109 50.4159H28.2589C28.0129 51.8932 27.8829 53.4091 27.8829 54.9551C27.8829 56.2757 27.9784 57.5742 28.1588 58.8456H16.2109C13.8867 58.8456 11.9961 56.9549 11.9961 54.6308C11.9961 52.3066 13.8867 50.4159 16.2109 50.4159ZM16.2109 70.5174C13.8867 70.5174 11.9961 68.6268 11.9961 66.3026C11.9961 63.9785 13.8867 62.0878 16.2109 62.0878H28.8207C29.6387 65.1375 30.9675 67.9798 32.7102 70.5174H16.2109ZM55.4415 79.2715C42.0334 79.2715 31.1251 68.3632 31.1251 54.9551C31.1251 41.5471 42.0334 30.6388 55.4415 30.6388C68.8495 30.6388 79.7578 41.5471 79.7578 54.9551C79.7578 68.3632 68.8495 79.2715 55.4415 79.2715Z" fill="#212123"/>
</svg>
