<svg width="83" height="83" viewBox="0 0 83 83" fill="none" xmlns="http://www.w3.org/2000/svg">
<g clip-path="url(#clip0_326:0)">
<path d="M77.4667 16.6C74.415 16.6 71.9335 19.0817 71.9335 22.1333C71.9335 25.1848 74.4152 27.6665 77.4667 27.6665C80.5183 27.6665 83 25.185 83 22.1333C83 19.0817 80.5183 16.6 77.4667 16.6ZM77.4667 24.9C75.941 24.9 74.7 23.6592 74.7 22.1333C74.7 20.6075 75.9408 19.3665 77.4667 19.3665C78.9927 19.3665 80.2335 20.6073 80.2335 22.1333C80.2333 23.6592 78.9925 24.9 77.4667 24.9Z" fill="#212123"/>
<path d="M5.53328 62.25C2.48173 62.25 0 64.7317 0 67.7833C0 70.8348 2.48173 73.3166 5.53328 73.3166C8.58499 73.3166 11.0666 70.8348 11.0666 67.7833C11.0666 64.7317 8.58499 62.25 5.53328 62.25ZM5.53328 70.55C4.00751 70.55 2.76656 69.3092 2.76656 67.7833C2.76656 66.2573 4.00734 65.0166 5.53328 65.0166C7.05905 65.0166 8.3 66.2573 8.3 67.7833C8.3 69.3092 7.05921 70.55 5.53328 70.55Z" fill="#212123"/>
<path d="M74.7844 18.3485L62.8504 12.5869C62.1615 12.2535 61.3357 12.544 61.0037 13.2317C60.6717 13.9192 60.9607 14.7464 61.6484 15.0784L73.5824 20.8399C73.7761 20.934 73.9809 20.9782 74.1827 20.9782C74.6972 20.9782 75.1912 20.6905 75.429 20.1952C75.761 19.5077 75.4719 18.6805 74.7844 18.3485Z" fill="#212123"/>
<path d="M62.25 71.9332C59.1982 71.9332 56.7167 74.415 56.7167 77.4665C56.7167 80.5181 59.1982 83 62.25 83C65.3017 83 67.7832 80.5182 67.7832 77.4667C67.7832 74.4151 65.3017 71.9332 62.25 71.9332ZM62.25 80.2332C60.7242 80.2332 59.4832 78.9925 59.4832 77.4665C59.4832 75.9406 60.7242 74.6999 62.25 74.6999C63.7757 74.6999 65.0167 75.9407 65.0167 77.4667C65.0167 78.9926 63.7757 80.2332 62.25 80.2332Z" fill="#212123"/>
<path d="M59.5678 73.6819L47.6337 67.9204C46.9448 67.587 46.119 67.8762 45.787 68.5651C45.455 69.2526 45.744 70.0799 46.4317 70.4119L58.3657 76.1734C58.5594 76.2674 58.7642 76.3117 58.966 76.3117C59.4805 76.3117 59.9745 76.0239 60.2125 75.5287C60.5443 74.841 60.2553 74.0139 59.5678 73.6819Z" fill="#212123"/>
<path d="M41.5 37.35C38.4482 37.35 35.9667 39.8317 35.9667 42.8833C35.9667 45.935 38.4484 48.4165 41.5 48.4165C44.5517 48.4165 47.0332 45.9348 47.0332 42.8833C47.0332 39.8317 44.5517 37.35 41.5 37.35ZM41.5 45.65C39.9742 45.65 38.7332 44.4092 38.7332 42.8833C38.7332 41.3575 39.974 40.1165 41.5 40.1165C43.0257 40.1165 44.2667 41.3573 44.2667 42.8833C44.2667 44.4092 43.0257 45.65 41.5 45.65Z" fill="#212123"/>
<path d="M39.0681 39.2535L29.9008 32.1085C29.2976 31.6423 28.429 31.7461 27.9586 32.3493C27.4896 32.9525 27.5961 33.8211 28.1993 34.2915L37.3666 41.4365C37.6198 41.6329 37.9186 41.7284 38.2161 41.7284C38.6283 41.7284 39.035 41.5459 39.3088 41.1959C39.7778 40.5925 39.6713 39.7238 39.0681 39.2535Z" fill="#212123"/>
<path d="M66.4 35.9668C58.01 35.9668 51.1832 42.7935 51.1832 51.1835C51.1832 59.5735 58.01 66.4002 66.4 66.4002C74.7899 66.4002 81.6167 59.5735 81.6167 51.1835C81.6167 42.7935 74.7899 35.9668 66.4 35.9668ZM66.4 63.6334C59.5345 63.6334 53.9499 58.0488 53.9499 51.1834C53.9499 44.3179 59.5345 38.7334 66.4 38.7334C73.2654 38.7334 78.85 44.3179 78.85 51.1834C78.85 58.0488 73.2654 63.6334 66.4 63.6334Z" fill="#212123"/>
<path d="M66.4 41.5C63.3483 41.5 60.8667 43.9817 60.8667 47.0333C60.8667 50.085 63.3484 52.5666 66.4 52.5666C69.4517 52.5666 71.9333 50.0848 71.9333 47.0333C71.9333 43.9817 69.4517 41.5 66.4 41.5ZM66.4 49.8C64.8742 49.8 63.6333 48.5592 63.6333 47.0333C63.6333 45.5075 64.874 44.2666 66.4 44.2666C67.9258 44.2666 69.1667 45.5073 69.1667 47.0333C69.1667 48.5592 67.9258 49.8 66.4 49.8Z" fill="#212123"/>
<path d="M70.413 55.3333H62.387C60.0229 55.3333 58.1 57.205 58.1 59.504V63.1505C58.1 63.6443 58.3628 64.1008 58.7902 64.3485C61.1087 65.6903 63.7398 66.4 66.4 66.4C69.0602 66.4 71.6912 65.6903 74.0097 64.3485C74.4372 64.1022 74.7 63.6443 74.7 63.1519V59.5055C74.7 57.205 72.7772 55.3333 70.413 55.3333ZM71.9333 62.326C68.4902 64.0413 64.3097 64.0413 60.8665 62.326V59.5055C60.8665 58.7307 61.5485 58.1 62.3868 58.1H70.4128C71.2511 58.1 71.9331 58.7307 71.9331 59.5055V62.326H71.9333Z" fill="#212123"/>
<path d="M33.2 52.5668C24.81 52.5668 17.9833 59.3935 17.9833 67.7835C17.9833 76.1735 24.81 83 33.2 83C41.59 83 48.4167 76.1733 48.4167 67.7833C48.4167 59.3934 41.59 52.5668 33.2 52.5668ZM33.2 80.2333C26.3345 80.2333 20.75 74.6488 20.75 67.7833C20.75 60.9178 26.3345 55.3333 33.2 55.3333C40.0655 55.3333 45.65 60.9178 45.65 67.7833C45.65 74.6488 40.0655 80.2333 33.2 80.2333Z" fill="#212123"/>
<path d="M33.2 58.1C30.1483 58.1 27.6667 60.5817 27.6667 63.6332C27.6667 66.685 30.1485 69.1665 33.2 69.1665C36.2516 69.1665 38.7333 66.6848 38.7333 63.6332C38.7333 60.5817 36.2517 58.1 33.2 58.1ZM33.2 66.4C31.6743 66.4 30.4333 65.1592 30.4333 63.6332C30.4333 62.1075 31.6741 60.8665 33.2 60.8665C34.7258 60.8665 35.9667 62.1073 35.9667 63.6332C35.9667 65.1592 34.7258 66.4 33.2 66.4Z" fill="#212123"/>
<path d="M37.213 71.9332H29.187C26.823 71.9332 24.9 73.8049 24.9 76.104V79.7505C24.9 80.2443 25.1628 80.7008 25.5903 80.9485C27.9088 82.2902 30.5398 83 33.2 83C35.8602 83 38.4913 82.2902 40.8098 80.9485C41.2372 80.7022 41.5 80.2444 41.5 79.7519V76.1054C41.5 73.8049 39.5772 71.9332 37.213 71.9332ZM38.7333 78.926C35.2901 80.6413 31.1098 80.6413 27.6666 78.926V76.1054C27.6666 75.3307 28.3486 74.6999 29.1868 74.6999H37.2129C38.0511 74.6999 38.7331 75.3307 38.7331 76.1054V78.926H38.7333Z" fill="#212123"/>
<path d="M15.2167 17.9833C6.82675 17.9833 0 24.81 0 33.2C0 41.59 6.82675 48.4167 15.2167 48.4167C23.6067 48.4167 30.4334 41.59 30.4334 33.2C30.4333 24.81 23.6065 17.9833 15.2167 17.9833ZM15.2167 45.65C8.35122 45.65 2.76672 40.0655 2.76672 33.2C2.76672 26.3345 8.35122 20.75 15.2167 20.75C22.0822 20.75 27.6667 26.3345 27.6667 33.2C27.6667 40.0655 22.0822 45.65 15.2167 45.65Z" fill="#212123"/>
<path d="M15.2168 23.5167C12.165 23.5167 9.68347 25.9985 9.68347 29.05C9.68347 32.1016 12.1652 34.5833 15.2168 34.5833C18.2685 34.5833 20.75 32.1016 20.75 29.05C20.75 25.9985 18.2683 23.5167 15.2168 23.5167ZM15.2168 31.8167C13.691 31.8167 12.45 30.5759 12.45 29.05C12.45 27.5241 13.6908 26.2833 15.2168 26.2833C16.7425 26.2833 17.9835 27.5241 17.9835 29.05C17.9835 30.5759 16.7425 31.8167 15.2168 31.8167Z" fill="#212123"/>
<path d="M19.2298 37.35H11.2037C8.83969 37.35 6.91675 39.2217 6.91675 41.5207V45.1672C6.91675 45.661 7.17953 46.1175 7.60701 46.3652C9.9255 47.707 12.5565 48.4167 15.2167 48.4167C17.877 48.4167 20.508 47.707 22.8265 46.3652C23.254 46.119 23.5167 45.661 23.5167 45.1687V41.5222C23.5167 39.2217 21.5938 37.35 19.2298 37.35ZM20.75 44.3427C17.307 46.058 13.1265 46.058 9.68331 44.3427V41.5222C9.68331 40.7475 10.3653 40.1167 11.2036 40.1167H19.2296C20.0679 40.1167 20.7499 40.7475 20.7499 41.5222V44.3427H20.75Z" fill="#212123"/>
<path d="M48.4167 0C40.0267 0 33.2 6.82675 33.2 15.2167C33.2 23.6067 40.0267 30.4334 48.4167 30.4334C56.8066 30.4334 63.6334 23.6067 63.6334 15.2167C63.6332 6.82675 56.8065 0 48.4167 0ZM48.4167 27.6667C41.5512 27.6667 35.9667 22.0822 35.9667 15.2167C35.9667 8.35122 41.5512 2.76672 48.4167 2.76672C55.2822 2.76672 60.8667 8.35122 60.8667 15.2167C60.8667 22.0822 55.2822 27.6667 48.4167 27.6667Z" fill="#212123"/>
<path d="M48.4167 5.53333C45.365 5.53333 42.8834 8.01506 42.8834 11.0666C42.8834 14.1182 45.3652 16.5999 48.4167 16.5999C51.4683 16.5999 53.95 14.1183 53.95 11.0668C53.95 8.01522 51.4683 5.53333 48.4167 5.53333ZM48.4167 13.8333C46.8909 13.8333 45.65 12.5925 45.65 11.0666C45.65 9.54083 46.8908 8.29988 48.4167 8.29988C49.9426 8.29988 51.1834 9.54067 51.1834 11.0666C51.1833 12.5925 49.9425 13.8333 48.4167 13.8333Z" fill="#212123"/>
<path d="M52.4297 19.3667H44.4037C42.0396 19.3667 40.1167 21.2384 40.1167 23.5374V27.1839C40.1167 27.6777 40.3795 28.1342 40.807 28.3819C43.1255 29.7237 45.7565 30.4334 48.4167 30.4334C51.0769 30.4334 53.7079 29.7237 56.0264 28.3819C56.4539 28.1357 56.7167 27.6777 56.7167 27.1854V23.5389C56.7167 21.2383 54.7938 19.3667 52.4297 19.3667ZM53.95 26.3594C50.5069 28.0747 46.3265 28.0747 42.8833 26.3594V23.5389C42.8833 22.7642 43.5653 22.1334 44.4035 22.1334H52.4296C53.2678 22.1334 53.9498 22.7642 53.9498 23.5389V26.3594H53.95Z" fill="#212123"/>
<path d="M35.636 14.3161C35.1395 13.7378 34.2665 13.6686 33.6855 14.1653L24.099 22.3685C23.518 22.8651 23.4503 23.738 23.9468 24.319C24.2208 24.6386 24.608 24.8033 24.9981 24.8033C25.3163 24.8033 25.6358 24.694 25.8973 24.4698L35.4838 16.2666C36.065 15.77 36.1327 14.8971 35.636 14.3161Z" fill="#212123"/>
<path d="M66.1232 36.5214L57.8232 25.4547C57.3653 24.8419 56.498 24.7215 55.8865 25.178C55.2751 25.636 55.152 26.5032 55.6098 27.1133L63.9098 38.18C64.1823 38.5424 64.5973 38.7333 65.0178 38.7333C65.3056 38.7333 65.5975 38.6433 65.8465 38.4565C66.458 37.9987 66.5812 37.1314 66.1232 36.5214Z" fill="#212123"/>
<path d="M54.7702 55.758C54.3123 55.1465 53.445 55.0235 52.8335 55.4813L45.1063 61.276C44.4948 61.734 44.3717 62.6013 44.8295 63.2113C45.102 63.5738 45.517 63.7646 45.9375 63.7646C46.2266 63.7646 46.5171 63.6733 46.7663 63.4878L54.4935 57.6931C55.105 57.2355 55.2282 56.368 54.7702 55.758Z" fill="#212123"/>
<path d="M19.3668 66.4H9.68333C8.91979 66.4 8.30005 67.0183 8.30005 67.7833C8.30005 68.5483 8.91979 69.1666 9.68333 69.1666H19.3666C20.1301 69.1666 20.7499 68.5483 20.7499 67.7833C20.7499 67.0183 20.1303 66.4 19.3668 66.4Z" fill="#212123"/>
<path d="M15.2168 0C12.1651 0 9.68335 2.48173 9.68335 5.53328C9.68335 8.58499 12.1651 11.0666 15.2166 11.0666C18.2683 11.0666 20.7499 8.58483 20.7499 5.53328C20.7501 2.48173 18.2683 0 15.2168 0ZM15.2168 8.3C13.691 8.3 12.4501 7.05921 12.4501 5.53328C12.4501 4.00751 13.6909 2.76656 15.2168 2.76656C16.7426 2.76656 17.9835 4.00734 17.9835 5.53328C17.9834 7.05921 16.7426 8.3 15.2168 8.3Z" fill="#212123"/>
<path d="M15.2168 8.30005C14.4532 8.30005 13.8335 8.91833 13.8335 9.68333V19.3666C13.8335 20.1316 14.4532 20.7499 15.2168 20.7499C15.9803 20.7499 16.6001 20.1316 16.6001 19.3666V9.68333C16.6001 8.91833 15.9803 8.30005 15.2168 8.30005Z" fill="#212123"/>
</g>
<defs>
<clipPath id="clip0_326:0">
<rect width="83" height="83" fill="white"/>
</clipPath>
</defs>
</svg>
