<svg width="110" height="110" viewBox="0 0 110 110" fill="none" xmlns="http://www.w3.org/2000/svg">
<g filter="url(#filter0_d_312_82)">
<mask id="path-1-outside-1_312_82" maskUnits="userSpaceOnUse" x="30.0005" y="30.0009" width="50" height="50" fill="black">
<rect fill="white" x="30.0005" y="30.0009" width="50" height="50"/>
<path d="M75.7843 43.0083C72.5797 37.4579 67.4055 33.4876 61.2149 31.8288C55.0244 30.17 48.5582 31.0214 43.0078 34.2258C37.4574 37.4303 33.4871 42.6045 31.8284 48.7951C30.1696 54.9857 31.0209 61.452 34.2254 67.0023C37.0998 71.9811 41.6685 75.765 47.0896 77.6566C49.6594 78.5533 52.3421 79.0007 55.0206 79.0007C57.933 79.0007 60.84 78.4714 63.588 77.4153C64.0712 77.2296 64.3124 76.6873 64.1265 76.204C63.9407 75.7207 63.3983 75.4793 62.9152 75.6654C55.6008 78.4767 47.6825 77.1993 41.7666 72.7588L42.6065 68.3745L43.0112 68.2431C44.5406 67.7462 45.3806 66.0977 44.8839 64.5683L44.5869 63.6543C44.5182 63.4428 44.5185 63.2192 44.5878 63.0079C44.8484 62.2137 44.7553 61.3447 44.3324 60.6236C43.9095 59.9025 43.1965 59.397 42.3761 59.2365L40.2601 58.8231L36.1775 55.719C35.9329 55.533 35.6128 55.4788 35.3205 55.5736L32.9302 56.3501C32.8795 55.4952 32.8787 54.6405 32.9269 53.7904C33.0212 53.8783 33.0826 53.938 33.1204 53.9772C33.1672 54.0551 33.2251 54.1265 33.293 54.1884C33.4882 54.3661 33.665 54.4468 34.0363 54.4468C34.3774 54.4467 34.8825 54.3787 35.7164 54.2555C36.5072 54.1386 37.294 54.0069 37.3018 54.0056C37.617 53.9528 37.8836 53.7428 38.009 53.4489C38.1345 53.1549 38.1014 52.8173 37.9213 52.5531L36.7718 50.8671L38.4182 49.6898C38.5279 49.6113 38.6194 49.5102 38.6865 49.3932L41.2386 44.9377L42.2673 43.8354C43.3185 42.7087 43.6185 41.0603 43.0315 39.6357C42.6852 38.7954 42.0803 38.0958 41.3237 37.6244C42.1431 36.9802 43.0168 36.3855 43.9453 35.8495C47.352 33.8826 51.0697 32.9295 54.7484 32.893L53.0744 34.9929L46.8667 37.1691C46.6146 37.2574 46.4121 37.4492 46.3103 37.6962L44.5767 41.8988C44.4536 42.1974 44.4927 42.5381 44.6803 42.801L47.2123 46.3477C46.8496 46.6785 46.4967 47.1604 46.0751 47.7587C45.8902 48.0211 45.7156 48.2689 45.595 48.4079C45.4901 48.5288 45.3851 48.6469 45.281 48.7639C44.7364 49.3766 44.1734 50.0102 43.7733 50.8566C42.8938 52.7184 43.0714 54.8823 44.2369 56.504C45.3639 58.072 47.2218 58.869 49.2048 58.6358C49.5279 58.5979 49.8291 58.5234 50.1206 58.4512C50.9243 58.2524 51.1789 58.2325 51.4367 58.4738C51.5622 58.5913 51.5737 58.6135 51.5712 59.0118C51.5694 59.2653 51.5674 59.5807 51.6548 59.9408C51.7948 60.5169 52.1565 60.915 52.4472 61.2349C52.5916 61.3938 52.7411 61.5583 52.7871 61.6686C53.0795 62.3693 52.9522 62.7573 52.6732 63.6076C52.6493 63.6804 52.6249 63.7546 52.6005 63.8308C52.1766 65.1428 52.7674 66.4442 53.2887 67.5923C53.458 67.9651 53.6178 68.3171 53.7225 68.6281C54.5655 71.1293 55.1973 71.7021 55.7044 71.9327C55.97 72.0535 56.2449 72.1065 56.5226 72.1064C57.874 72.1063 59.2842 70.8515 59.932 70.056C60.3389 69.5565 60.4391 69.0564 60.5122 68.691C60.5487 68.5094 60.5774 68.3659 60.6321 68.2722C60.7159 68.1287 60.8146 68.0175 60.9396 67.8767C61.191 67.5937 61.5038 67.2416 61.7064 66.6032C61.8603 66.1184 61.9722 65.9995 62.3426 65.605C62.4071 65.5365 62.4758 65.4631 62.5496 65.3829C63.7982 64.0242 63.4767 62.9863 63.1361 61.8873C62.8495 60.9627 63.3508 60.3713 64.5628 59.2426C65.0881 58.7534 65.6313 58.2475 66.0512 57.6396C66.235 57.3735 66.794 56.5642 66.4481 55.762C66.109 54.9754 65.2471 54.8432 64.5547 54.7371C64.2812 54.6951 63.868 54.6317 63.7365 54.5458C63.1564 54.1665 62.8016 53.3751 62.4584 52.6096C62.39 52.4573 62.3226 52.3069 62.2543 52.161C62.1324 51.9005 62.0106 51.5854 61.8817 51.2519C61.5406 50.3691 61.1541 49.3685 60.4961 48.671C59.9046 48.0443 58.7896 47.7424 57.8059 47.476C57.4751 47.3865 57.1628 47.3019 56.9568 47.2259C56.7842 47.1621 56.5969 47.1506 56.4182 47.1926C55.9395 47.3048 55.6408 47.4285 55.419 47.6062C55.3604 47.6532 55.1868 47.8074 55.0852 48.0553C54.742 47.8905 54.27 47.576 53.9796 47.3824C53.9736 47.3784 53.9675 47.3744 53.9615 47.3703C54.0594 46.9786 53.9708 46.6643 53.878 46.468C53.3543 45.3602 51.6159 45.447 51.273 45.4761C51.0781 45.4924 50.8317 45.5011 50.571 45.5103C50.1615 45.5249 49.7088 45.5412 49.261 45.5914L49.284 45.5271C49.624 44.58 50.5285 43.9436 51.5348 43.9436H52.0678C52.5854 43.9436 53.0052 43.5238 53.0052 43.0062C53.0052 42.4886 52.5854 42.0688 52.0678 42.0688H51.5348C50.0408 42.0688 48.6727 42.855 47.9059 44.0926L46.5076 42.1339L47.8833 38.7993L53.9492 36.6727C54.1155 36.6144 54.2622 36.5103 54.3721 36.3724L57.0687 32.99C63.9587 33.6454 70.4444 37.5085 74.1608 43.9455C75.1507 45.6601 75.883 47.4652 76.3698 49.3114L75.9724 49.6658C75.4537 50.1286 75.1498 50.7925 75.1381 51.4873C75.1381 51.4949 75.1379 51.5024 75.1376 51.5099L74.4901 49.7294C74.3937 49.4637 74.2516 49.22 74.068 49.0052L72.9131 47.6531C72.4653 47.1289 71.8134 46.8285 71.1242 46.8285H69.7106C69.2087 46.8285 68.7501 47.1033 68.5134 47.5455C68.2767 47.9879 68.3026 48.522 68.5809 48.9394L68.724 49.1542C67.8105 49.9397 66.7539 50.5683 65.6289 50.9923L63.6911 47.2804V46.4523C63.6911 46.1962 63.5863 45.951 63.4009 45.7743L61.656 44.1085C61.5597 44.0166 61.4449 43.9463 61.3194 43.9021L59.7486 43.3501C59.2599 43.1782 58.725 43.4354 58.5534 43.9237C58.3817 44.4122 58.6385 44.9473 59.127 45.1189L60.5073 45.6041L61.8163 46.8535V47.5105C61.8163 47.6615 61.8528 47.8104 61.9228 47.9444L64.3487 52.5913C64.5669 53.0094 65.0621 53.2005 65.504 53.037L66.2104 52.7765C67.8515 52.1713 69.3726 51.1977 70.6094 49.9611C70.9253 49.6451 70.9744 49.1502 70.7265 48.7783L70.6766 48.7034H71.1242C71.2642 48.7034 71.3967 48.7644 71.4876 48.8709L72.6425 50.223C72.6797 50.2666 72.7085 50.316 72.7282 50.37L74.0027 53.8747C74.1122 54.1758 74.368 54.4001 74.6805 54.4695C74.7481 54.4844 74.816 54.4917 74.8836 54.4917C75.1295 54.4917 75.3689 54.3948 75.5464 54.2171L76.1531 53.6104C76.5373 53.2261 76.8017 52.74 76.9281 52.201C77.8664 59.7202 74.918 67.4985 68.6861 72.3898C68.2787 72.7094 68.2077 73.2986 68.5275 73.7059C68.8471 74.1133 69.4362 74.1843 69.8436 73.8645C74.3429 70.3333 77.4338 65.2825 78.5471 59.6426C79.6708 53.9483 78.6897 48.0406 75.7843 43.0083ZM35.4331 57.5084L39.2987 60.4475C39.413 60.5344 39.5456 60.5939 39.6864 60.6213L42.0163 61.0766C42.3136 61.1347 42.5617 61.3106 42.715 61.572C42.8683 61.8332 42.9005 62.1356 42.8062 62.4235C42.6121 63.0153 42.6112 63.6413 42.8037 64.2335L43.1007 65.1474C43.2781 65.6936 42.978 66.2824 42.4319 66.4599L41.5003 66.7626C41.1752 66.8682 40.9335 67.1423 40.8693 67.4777L40.1195 71.3917C38.4711 69.883 37.0238 68.0999 35.849 66.065C34.4158 63.5828 33.5203 60.9352 33.1256 58.2581L35.4331 57.5084ZM40.8966 42.5563L39.7938 43.7378C39.7446 43.7906 39.7016 43.8489 39.6657 43.9115L37.1614 48.2836L34.9357 49.8751C34.5211 50.1716 34.4193 50.7447 34.7064 51.1658L35.5388 52.3868C35.059 52.4582 34.6284 52.5171 34.3421 52.5483C34.287 52.4955 34.2295 52.442 34.17 52.3867C33.9471 52.1797 33.6375 51.9032 33.1758 51.4993C33.9372 46.7871 36.2078 42.3479 39.7789 38.9593C40.4627 39.1746 41.0239 39.6847 41.298 40.35C41.6065 41.0984 41.4488 41.9644 40.8966 42.5563ZM48.54 47.679C48.9582 47.4437 49.9287 47.4093 50.6372 47.3842C50.9212 47.3742 51.1895 47.3646 51.4291 47.3445C51.5556 47.334 51.696 47.3359 51.8285 47.3462C51.7694 47.4981 51.7501 47.6648 51.7758 47.8302C51.8209 48.1211 52.0003 48.3737 52.2598 48.5126C52.4356 48.6067 52.6804 48.7699 52.9395 48.9427C53.6722 49.4311 54.5027 49.9847 55.2829 50.0344C55.9924 50.0805 56.3872 49.6761 56.5563 49.5039C56.5698 49.4902 56.5826 49.4765 56.5961 49.464C56.6913 49.3864 56.7806 49.2824 56.847 49.1568C56.9969 49.1997 57.1544 49.2423 57.3158 49.2861C57.8709 49.4364 58.9041 49.7161 59.1324 49.958C59.5379 50.3879 59.8539 51.206 60.1328 51.9278C60.2737 52.2926 60.4068 52.6368 60.5562 52.956C60.6203 53.093 60.6834 53.2341 60.7475 53.377C61.1801 54.3419 61.6704 55.4355 62.7106 56.1154C63.1822 56.4238 63.7604 56.5124 64.2705 56.5906C64.3322 56.6001 64.4029 56.611 64.4747 56.6228C64.1719 57.0452 63.7408 57.4467 63.2852 57.8709C62.1247 58.9516 60.6804 60.2968 61.3456 62.4426C61.6595 63.4559 61.6741 63.5654 61.1693 64.1145C61.1005 64.1895 61.0364 64.2577 60.9763 64.3216C60.5439 64.782 60.2024 65.1455 59.9196 66.0361C59.8375 66.2948 59.7311 66.4146 59.5379 66.6321C59.3834 66.8061 59.1909 67.0229 59.0134 67.3266C58.8008 67.6905 58.7305 68.041 58.6741 68.3225C58.6186 68.5995 58.587 68.7386 58.4783 68.8721C58.2307 69.176 57.7689 69.6174 57.2948 69.9186C56.8542 70.1984 56.5969 70.2366 56.5093 70.2314C56.4092 70.1241 56.0469 69.6545 55.4994 68.0295C55.3644 67.6287 55.1771 67.2162 54.996 66.8173C54.5967 65.9379 54.1839 65.0285 54.3847 64.407C54.4084 64.3337 54.4319 64.2621 54.4549 64.1921C54.7757 63.2143 55.0785 62.2909 54.5175 60.9465C54.3467 60.5371 54.0748 60.238 53.835 59.974C53.6799 59.8033 53.5041 59.6098 53.477 59.4984C53.444 59.3625 53.445 59.2057 53.4463 59.0241C53.4495 58.5343 53.4543 57.7941 52.7185 57.105C51.681 56.134 50.4713 56.4331 49.6707 56.6311C49.4248 56.6919 49.1925 56.7495 48.9866 56.7736C47.6696 56.928 46.4938 56.4311 45.7597 55.4096C44.9918 54.3411 44.8803 52.9033 45.4689 51.6573C45.7538 51.0544 46.1842 50.57 46.6826 50.0094C46.7914 49.8869 46.9013 49.7633 47.0112 49.6367C47.194 49.426 47.3952 49.1406 47.6079 48.8385C47.8619 48.478 48.3347 47.8067 48.54 47.679Z"/>
</mask>
<path d="M75.7843 43.0083C72.5797 37.4579 67.4055 33.4876 61.2149 31.8288C55.0244 30.17 48.5582 31.0214 43.0078 34.2258C37.4574 37.4303 33.4871 42.6045 31.8284 48.7951C30.1696 54.9857 31.0209 61.452 34.2254 67.0023C37.0998 71.9811 41.6685 75.765 47.0896 77.6566C49.6594 78.5533 52.3421 79.0007 55.0206 79.0007C57.933 79.0007 60.84 78.4714 63.588 77.4153C64.0712 77.2296 64.3124 76.6873 64.1265 76.204C63.9407 75.7207 63.3983 75.4793 62.9152 75.6654C55.6008 78.4767 47.6825 77.1993 41.7666 72.7588L42.6065 68.3745L43.0112 68.2431C44.5406 67.7462 45.3806 66.0977 44.8839 64.5683L44.5869 63.6543C44.5182 63.4428 44.5185 63.2192 44.5878 63.0079C44.8484 62.2137 44.7553 61.3447 44.3324 60.6236C43.9095 59.9025 43.1965 59.397 42.3761 59.2365L40.2601 58.8231L36.1775 55.719C35.9329 55.533 35.6128 55.4788 35.3205 55.5736L32.9302 56.3501C32.8795 55.4952 32.8787 54.6405 32.9269 53.7904C33.0212 53.8783 33.0826 53.938 33.1204 53.9772C33.1672 54.0551 33.2251 54.1265 33.293 54.1884C33.4882 54.3661 33.665 54.4468 34.0363 54.4468C34.3774 54.4467 34.8825 54.3787 35.7164 54.2555C36.5072 54.1386 37.294 54.0069 37.3018 54.0056C37.617 53.9528 37.8836 53.7428 38.009 53.4489C38.1345 53.1549 38.1014 52.8173 37.9213 52.5531L36.7718 50.8671L38.4182 49.6898C38.5279 49.6113 38.6194 49.5102 38.6865 49.3932L41.2386 44.9377L42.2673 43.8354C43.3185 42.7087 43.6185 41.0603 43.0315 39.6357C42.6852 38.7954 42.0803 38.0958 41.3237 37.6244C42.1431 36.9802 43.0168 36.3855 43.9453 35.8495C47.352 33.8826 51.0697 32.9295 54.7484 32.893L53.0744 34.9929L46.8667 37.1691C46.6146 37.2574 46.4121 37.4492 46.3103 37.6962L44.5767 41.8988C44.4536 42.1974 44.4927 42.5381 44.6803 42.801L47.2123 46.3477C46.8496 46.6785 46.4967 47.1604 46.0751 47.7587C45.8902 48.0211 45.7156 48.2689 45.595 48.4079C45.4901 48.5288 45.3851 48.6469 45.281 48.7639C44.7364 49.3766 44.1734 50.0102 43.7733 50.8566C42.8938 52.7184 43.0714 54.8823 44.2369 56.504C45.3639 58.072 47.2218 58.869 49.2048 58.6358C49.5279 58.5979 49.8291 58.5234 50.1206 58.4512C50.9243 58.2524 51.1789 58.2325 51.4367 58.4738C51.5622 58.5913 51.5737 58.6135 51.5712 59.0118C51.5694 59.2653 51.5674 59.5807 51.6548 59.9408C51.7948 60.5169 52.1565 60.915 52.4472 61.2349C52.5916 61.3938 52.7411 61.5583 52.7871 61.6686C53.0795 62.3693 52.9522 62.7573 52.6732 63.6076C52.6493 63.6804 52.6249 63.7546 52.6005 63.8308C52.1766 65.1428 52.7674 66.4442 53.2887 67.5923C53.458 67.9651 53.6178 68.3171 53.7225 68.6281C54.5655 71.1293 55.1973 71.7021 55.7044 71.9327C55.97 72.0535 56.2449 72.1065 56.5226 72.1064C57.874 72.1063 59.2842 70.8515 59.932 70.056C60.3389 69.5565 60.4391 69.0564 60.5122 68.691C60.5487 68.5094 60.5774 68.3659 60.6321 68.2722C60.7159 68.1287 60.8146 68.0175 60.9396 67.8767C61.191 67.5937 61.5038 67.2416 61.7064 66.6032C61.8603 66.1184 61.9722 65.9995 62.3426 65.605C62.4071 65.5365 62.4758 65.4631 62.5496 65.3829C63.7982 64.0242 63.4767 62.9863 63.1361 61.8873C62.8495 60.9627 63.3508 60.3713 64.5628 59.2426C65.0881 58.7534 65.6313 58.2475 66.0512 57.6396C66.235 57.3735 66.794 56.5642 66.4481 55.762C66.109 54.9754 65.2471 54.8432 64.5547 54.7371C64.2812 54.6951 63.868 54.6317 63.7365 54.5458C63.1564 54.1665 62.8016 53.3751 62.4584 52.6096C62.39 52.4573 62.3226 52.3069 62.2543 52.161C62.1324 51.9005 62.0106 51.5854 61.8817 51.2519C61.5406 50.3691 61.1541 49.3685 60.4961 48.671C59.9046 48.0443 58.7896 47.7424 57.8059 47.476C57.4751 47.3865 57.1628 47.3019 56.9568 47.2259C56.7842 47.1621 56.5969 47.1506 56.4182 47.1926C55.9395 47.3048 55.6408 47.4285 55.419 47.6062C55.3604 47.6532 55.1868 47.8074 55.0852 48.0553C54.742 47.8905 54.27 47.576 53.9796 47.3824C53.9736 47.3784 53.9675 47.3744 53.9615 47.3703C54.0594 46.9786 53.9708 46.6643 53.878 46.468C53.3543 45.3602 51.6159 45.447 51.273 45.4761C51.0781 45.4924 50.8317 45.5011 50.571 45.5103C50.1615 45.5249 49.7088 45.5412 49.261 45.5914L49.284 45.5271C49.624 44.58 50.5285 43.9436 51.5348 43.9436H52.0678C52.5854 43.9436 53.0052 43.5238 53.0052 43.0062C53.0052 42.4886 52.5854 42.0688 52.0678 42.0688H51.5348C50.0408 42.0688 48.6727 42.855 47.9059 44.0926L46.5076 42.1339L47.8833 38.7993L53.9492 36.6727C54.1155 36.6144 54.2622 36.5103 54.3721 36.3724L57.0687 32.99C63.9587 33.6454 70.4444 37.5085 74.1608 43.9455C75.1507 45.6601 75.883 47.4652 76.3698 49.3114L75.9724 49.6658C75.4537 50.1286 75.1498 50.7925 75.1381 51.4873C75.1381 51.4949 75.1379 51.5024 75.1376 51.5099L74.4901 49.7294C74.3937 49.4637 74.2516 49.22 74.068 49.0052L72.9131 47.6531C72.4653 47.1289 71.8134 46.8285 71.1242 46.8285H69.7106C69.2087 46.8285 68.7501 47.1033 68.5134 47.5455C68.2767 47.9879 68.3026 48.522 68.5809 48.9394L68.724 49.1542C67.8105 49.9397 66.7539 50.5683 65.6289 50.9923L63.6911 47.2804V46.4523C63.6911 46.1962 63.5863 45.951 63.4009 45.7743L61.656 44.1085C61.5597 44.0166 61.4449 43.9463 61.3194 43.9021L59.7486 43.3501C59.2599 43.1782 58.725 43.4354 58.5534 43.9237C58.3817 44.4122 58.6385 44.9473 59.127 45.1189L60.5073 45.6041L61.8163 46.8535V47.5105C61.8163 47.6615 61.8528 47.8104 61.9228 47.9444L64.3487 52.5913C64.5669 53.0094 65.0621 53.2005 65.504 53.037L66.2104 52.7765C67.8515 52.1713 69.3726 51.1977 70.6094 49.9611C70.9253 49.6451 70.9744 49.1502 70.7265 48.7783L70.6766 48.7034H71.1242C71.2642 48.7034 71.3967 48.7644 71.4876 48.8709L72.6425 50.223C72.6797 50.2666 72.7085 50.316 72.7282 50.37L74.0027 53.8747C74.1122 54.1758 74.368 54.4001 74.6805 54.4695C74.7481 54.4844 74.816 54.4917 74.8836 54.4917C75.1295 54.4917 75.3689 54.3948 75.5464 54.2171L76.1531 53.6104C76.5373 53.2261 76.8017 52.74 76.9281 52.201C77.8664 59.7202 74.918 67.4985 68.6861 72.3898C68.2787 72.7094 68.2077 73.2986 68.5275 73.7059C68.8471 74.1133 69.4362 74.1843 69.8436 73.8645C74.3429 70.3333 77.4338 65.2825 78.5471 59.6426C79.6708 53.9483 78.6897 48.0406 75.7843 43.0083ZM35.4331 57.5084L39.2987 60.4475C39.413 60.5344 39.5456 60.5939 39.6864 60.6213L42.0163 61.0766C42.3136 61.1347 42.5617 61.3106 42.715 61.572C42.8683 61.8332 42.9005 62.1356 42.8062 62.4235C42.6121 63.0153 42.6112 63.6413 42.8037 64.2335L43.1007 65.1474C43.2781 65.6936 42.978 66.2824 42.4319 66.4599L41.5003 66.7626C41.1752 66.8682 40.9335 67.1423 40.8693 67.4777L40.1195 71.3917C38.4711 69.883 37.0238 68.0999 35.849 66.065C34.4158 63.5828 33.5203 60.9352 33.1256 58.2581L35.4331 57.5084ZM40.8966 42.5563L39.7938 43.7378C39.7446 43.7906 39.7016 43.8489 39.6657 43.9115L37.1614 48.2836L34.9357 49.8751C34.5211 50.1716 34.4193 50.7447 34.7064 51.1658L35.5388 52.3868C35.059 52.4582 34.6284 52.5171 34.3421 52.5483C34.287 52.4955 34.2295 52.442 34.17 52.3867C33.9471 52.1797 33.6375 51.9032 33.1758 51.4993C33.9372 46.7871 36.2078 42.3479 39.7789 38.9593C40.4627 39.1746 41.0239 39.6847 41.298 40.35C41.6065 41.0984 41.4488 41.9644 40.8966 42.5563ZM48.54 47.679C48.9582 47.4437 49.9287 47.4093 50.6372 47.3842C50.9212 47.3742 51.1895 47.3646 51.4291 47.3445C51.5556 47.334 51.696 47.3359 51.8285 47.3462C51.7694 47.4981 51.7501 47.6648 51.7758 47.8302C51.8209 48.1211 52.0003 48.3737 52.2598 48.5126C52.4356 48.6067 52.6804 48.7699 52.9395 48.9427C53.6722 49.4311 54.5027 49.9847 55.2829 50.0344C55.9924 50.0805 56.3872 49.6761 56.5563 49.5039C56.5698 49.4902 56.5826 49.4765 56.5961 49.464C56.6913 49.3864 56.7806 49.2824 56.847 49.1568C56.9969 49.1997 57.1544 49.2423 57.3158 49.2861C57.8709 49.4364 58.9041 49.7161 59.1324 49.958C59.5379 50.3879 59.8539 51.206 60.1328 51.9278C60.2737 52.2926 60.4068 52.6368 60.5562 52.956C60.6203 53.093 60.6834 53.2341 60.7475 53.377C61.1801 54.3419 61.6704 55.4355 62.7106 56.1154C63.1822 56.4238 63.7604 56.5124 64.2705 56.5906C64.3322 56.6001 64.4029 56.611 64.4747 56.6228C64.1719 57.0452 63.7408 57.4467 63.2852 57.8709C62.1247 58.9516 60.6804 60.2968 61.3456 62.4426C61.6595 63.4559 61.6741 63.5654 61.1693 64.1145C61.1005 64.1895 61.0364 64.2577 60.9763 64.3216C60.5439 64.782 60.2024 65.1455 59.9196 66.0361C59.8375 66.2948 59.7311 66.4146 59.5379 66.6321C59.3834 66.8061 59.1909 67.0229 59.0134 67.3266C58.8008 67.6905 58.7305 68.041 58.6741 68.3225C58.6186 68.5995 58.587 68.7386 58.4783 68.8721C58.2307 69.176 57.7689 69.6174 57.2948 69.9186C56.8542 70.1984 56.5969 70.2366 56.5093 70.2314C56.4092 70.1241 56.0469 69.6545 55.4994 68.0295C55.3644 67.6287 55.1771 67.2162 54.996 66.8173C54.5967 65.9379 54.1839 65.0285 54.3847 64.407C54.4084 64.3337 54.4319 64.2621 54.4549 64.1921C54.7757 63.2143 55.0785 62.2909 54.5175 60.9465C54.3467 60.5371 54.0748 60.238 53.835 59.974C53.6799 59.8033 53.5041 59.6098 53.477 59.4984C53.444 59.3625 53.445 59.2057 53.4463 59.0241C53.4495 58.5343 53.4543 57.7941 52.7185 57.105C51.681 56.134 50.4713 56.4331 49.6707 56.6311C49.4248 56.6919 49.1925 56.7495 48.9866 56.7736C47.6696 56.928 46.4938 56.4311 45.7597 55.4096C44.9918 54.3411 44.8803 52.9033 45.4689 51.6573C45.7538 51.0544 46.1842 50.57 46.6826 50.0094C46.7914 49.8869 46.9013 49.7633 47.0112 49.6367C47.194 49.426 47.3952 49.1406 47.6079 48.8385C47.8619 48.478 48.3347 47.8067 48.54 47.679Z" fill="url(#paint0_linear_312_82)"/>
<path d="M75.7843 43.0083C72.5797 37.4579 67.4055 33.4876 61.2149 31.8288C55.0244 30.17 48.5582 31.0214 43.0078 34.2258C37.4574 37.4303 33.4871 42.6045 31.8284 48.7951C30.1696 54.9857 31.0209 61.452 34.2254 67.0023C37.0998 71.9811 41.6685 75.765 47.0896 77.6566C49.6594 78.5533 52.3421 79.0007 55.0206 79.0007C57.933 79.0007 60.84 78.4714 63.588 77.4153C64.0712 77.2296 64.3124 76.6873 64.1265 76.204C63.9407 75.7207 63.3983 75.4793 62.9152 75.6654C55.6008 78.4767 47.6825 77.1993 41.7666 72.7588L42.6065 68.3745L43.0112 68.2431C44.5406 67.7462 45.3806 66.0977 44.8839 64.5683L44.5869 63.6543C44.5182 63.4428 44.5185 63.2192 44.5878 63.0079C44.8484 62.2137 44.7553 61.3447 44.3324 60.6236C43.9095 59.9025 43.1965 59.397 42.3761 59.2365L40.2601 58.8231L36.1775 55.719C35.9329 55.533 35.6128 55.4788 35.3205 55.5736L32.9302 56.3501C32.8795 55.4952 32.8787 54.6405 32.9269 53.7904C33.0212 53.8783 33.0826 53.938 33.1204 53.9772C33.1672 54.0551 33.2251 54.1265 33.293 54.1884C33.4882 54.3661 33.665 54.4468 34.0363 54.4468C34.3774 54.4467 34.8825 54.3787 35.7164 54.2555C36.5072 54.1386 37.294 54.0069 37.3018 54.0056C37.617 53.9528 37.8836 53.7428 38.009 53.4489C38.1345 53.1549 38.1014 52.8173 37.9213 52.5531L36.7718 50.8671L38.4182 49.6898C38.5279 49.6113 38.6194 49.5102 38.6865 49.3932L41.2386 44.9377L42.2673 43.8354C43.3185 42.7087 43.6185 41.0603 43.0315 39.6357C42.6852 38.7954 42.0803 38.0958 41.3237 37.6244C42.1431 36.9802 43.0168 36.3855 43.9453 35.8495C47.352 33.8826 51.0697 32.9295 54.7484 32.893L53.0744 34.9929L46.8667 37.1691C46.6146 37.2574 46.4121 37.4492 46.3103 37.6962L44.5767 41.8988C44.4536 42.1974 44.4927 42.5381 44.6803 42.801L47.2123 46.3477C46.8496 46.6785 46.4967 47.1604 46.0751 47.7587C45.8902 48.0211 45.7156 48.2689 45.595 48.4079C45.4901 48.5288 45.3851 48.6469 45.281 48.7639C44.7364 49.3766 44.1734 50.0102 43.7733 50.8566C42.8938 52.7184 43.0714 54.8823 44.2369 56.504C45.3639 58.072 47.2218 58.869 49.2048 58.6358C49.5279 58.5979 49.8291 58.5234 50.1206 58.4512C50.9243 58.2524 51.1789 58.2325 51.4367 58.4738C51.5622 58.5913 51.5737 58.6135 51.5712 59.0118C51.5694 59.2653 51.5674 59.5807 51.6548 59.9408C51.7948 60.5169 52.1565 60.915 52.4472 61.2349C52.5916 61.3938 52.7411 61.5583 52.7871 61.6686C53.0795 62.3693 52.9522 62.7573 52.6732 63.6076C52.6493 63.6804 52.6249 63.7546 52.6005 63.8308C52.1766 65.1428 52.7674 66.4442 53.2887 67.5923C53.458 67.9651 53.6178 68.3171 53.7225 68.6281C54.5655 71.1293 55.1973 71.7021 55.7044 71.9327C55.97 72.0535 56.2449 72.1065 56.5226 72.1064C57.874 72.1063 59.2842 70.8515 59.932 70.056C60.3389 69.5565 60.4391 69.0564 60.5122 68.691C60.5487 68.5094 60.5774 68.3659 60.6321 68.2722C60.7159 68.1287 60.8146 68.0175 60.9396 67.8767C61.191 67.5937 61.5038 67.2416 61.7064 66.6032C61.8603 66.1184 61.9722 65.9995 62.3426 65.605C62.4071 65.5365 62.4758 65.4631 62.5496 65.3829C63.7982 64.0242 63.4767 62.9863 63.1361 61.8873C62.8495 60.9627 63.3508 60.3713 64.5628 59.2426C65.0881 58.7534 65.6313 58.2475 66.0512 57.6396C66.235 57.3735 66.794 56.5642 66.4481 55.762C66.109 54.9754 65.2471 54.8432 64.5547 54.7371C64.2812 54.6951 63.868 54.6317 63.7365 54.5458C63.1564 54.1665 62.8016 53.3751 62.4584 52.6096C62.39 52.4573 62.3226 52.3069 62.2543 52.161C62.1324 51.9005 62.0106 51.5854 61.8817 51.2519C61.5406 50.3691 61.1541 49.3685 60.4961 48.671C59.9046 48.0443 58.7896 47.7424 57.8059 47.476C57.4751 47.3865 57.1628 47.3019 56.9568 47.2259C56.7842 47.1621 56.5969 47.1506 56.4182 47.1926C55.9395 47.3048 55.6408 47.4285 55.419 47.6062C55.3604 47.6532 55.1868 47.8074 55.0852 48.0553C54.742 47.8905 54.27 47.576 53.9796 47.3824C53.9736 47.3784 53.9675 47.3744 53.9615 47.3703C54.0594 46.9786 53.9708 46.6643 53.878 46.468C53.3543 45.3602 51.6159 45.447 51.273 45.4761C51.0781 45.4924 50.8317 45.5011 50.571 45.5103C50.1615 45.5249 49.7088 45.5412 49.261 45.5914L49.284 45.5271C49.624 44.58 50.5285 43.9436 51.5348 43.9436H52.0678C52.5854 43.9436 53.0052 43.5238 53.0052 43.0062C53.0052 42.4886 52.5854 42.0688 52.0678 42.0688H51.5348C50.0408 42.0688 48.6727 42.855 47.9059 44.0926L46.5076 42.1339L47.8833 38.7993L53.9492 36.6727C54.1155 36.6144 54.2622 36.5103 54.3721 36.3724L57.0687 32.99C63.9587 33.6454 70.4444 37.5085 74.1608 43.9455C75.1507 45.6601 75.883 47.4652 76.3698 49.3114L75.9724 49.6658C75.4537 50.1286 75.1498 50.7925 75.1381 51.4873C75.1381 51.4949 75.1379 51.5024 75.1376 51.5099L74.4901 49.7294C74.3937 49.4637 74.2516 49.22 74.068 49.0052L72.9131 47.6531C72.4653 47.1289 71.8134 46.8285 71.1242 46.8285H69.7106C69.2087 46.8285 68.7501 47.1033 68.5134 47.5455C68.2767 47.9879 68.3026 48.522 68.5809 48.9394L68.724 49.1542C67.8105 49.9397 66.7539 50.5683 65.6289 50.9923L63.6911 47.2804V46.4523C63.6911 46.1962 63.5863 45.951 63.4009 45.7743L61.656 44.1085C61.5597 44.0166 61.4449 43.9463 61.3194 43.9021L59.7486 43.3501C59.2599 43.1782 58.725 43.4354 58.5534 43.9237C58.3817 44.4122 58.6385 44.9473 59.127 45.1189L60.5073 45.6041L61.8163 46.8535V47.5105C61.8163 47.6615 61.8528 47.8104 61.9228 47.9444L64.3487 52.5913C64.5669 53.0094 65.0621 53.2005 65.504 53.037L66.2104 52.7765C67.8515 52.1713 69.3726 51.1977 70.6094 49.9611C70.9253 49.6451 70.9744 49.1502 70.7265 48.7783L70.6766 48.7034H71.1242C71.2642 48.7034 71.3967 48.7644 71.4876 48.8709L72.6425 50.223C72.6797 50.2666 72.7085 50.316 72.7282 50.37L74.0027 53.8747C74.1122 54.1758 74.368 54.4001 74.6805 54.4695C74.7481 54.4844 74.816 54.4917 74.8836 54.4917C75.1295 54.4917 75.3689 54.3948 75.5464 54.2171L76.1531 53.6104C76.5373 53.2261 76.8017 52.74 76.9281 52.201C77.8664 59.7202 74.918 67.4985 68.6861 72.3898C68.2787 72.7094 68.2077 73.2986 68.5275 73.7059C68.8471 74.1133 69.4362 74.1843 69.8436 73.8645C74.3429 70.3333 77.4338 65.2825 78.5471 59.6426C79.6708 53.9483 78.6897 48.0406 75.7843 43.0083ZM35.4331 57.5084L39.2987 60.4475C39.413 60.5344 39.5456 60.5939 39.6864 60.6213L42.0163 61.0766C42.3136 61.1347 42.5617 61.3106 42.715 61.572C42.8683 61.8332 42.9005 62.1356 42.8062 62.4235C42.6121 63.0153 42.6112 63.6413 42.8037 64.2335L43.1007 65.1474C43.2781 65.6936 42.978 66.2824 42.4319 66.4599L41.5003 66.7626C41.1752 66.8682 40.9335 67.1423 40.8693 67.4777L40.1195 71.3917C38.4711 69.883 37.0238 68.0999 35.849 66.065C34.4158 63.5828 33.5203 60.9352 33.1256 58.2581L35.4331 57.5084ZM40.8966 42.5563L39.7938 43.7378C39.7446 43.7906 39.7016 43.8489 39.6657 43.9115L37.1614 48.2836L34.9357 49.8751C34.5211 50.1716 34.4193 50.7447 34.7064 51.1658L35.5388 52.3868C35.059 52.4582 34.6284 52.5171 34.3421 52.5483C34.287 52.4955 34.2295 52.442 34.17 52.3867C33.9471 52.1797 33.6375 51.9032 33.1758 51.4993C33.9372 46.7871 36.2078 42.3479 39.7789 38.9593C40.4627 39.1746 41.0239 39.6847 41.298 40.35C41.6065 41.0984 41.4488 41.9644 40.8966 42.5563ZM48.54 47.679C48.9582 47.4437 49.9287 47.4093 50.6372 47.3842C50.9212 47.3742 51.1895 47.3646 51.4291 47.3445C51.5556 47.334 51.696 47.3359 51.8285 47.3462C51.7694 47.4981 51.7501 47.6648 51.7758 47.8302C51.8209 48.1211 52.0003 48.3737 52.2598 48.5126C52.4356 48.6067 52.6804 48.7699 52.9395 48.9427C53.6722 49.4311 54.5027 49.9847 55.2829 50.0344C55.9924 50.0805 56.3872 49.6761 56.5563 49.5039C56.5698 49.4902 56.5826 49.4765 56.5961 49.464C56.6913 49.3864 56.7806 49.2824 56.847 49.1568C56.9969 49.1997 57.1544 49.2423 57.3158 49.2861C57.8709 49.4364 58.9041 49.7161 59.1324 49.958C59.5379 50.3879 59.8539 51.206 60.1328 51.9278C60.2737 52.2926 60.4068 52.6368 60.5562 52.956C60.6203 53.093 60.6834 53.2341 60.7475 53.377C61.1801 54.3419 61.6704 55.4355 62.7106 56.1154C63.1822 56.4238 63.7604 56.5124 64.2705 56.5906C64.3322 56.6001 64.4029 56.611 64.4747 56.6228C64.1719 57.0452 63.7408 57.4467 63.2852 57.8709C62.1247 58.9516 60.6804 60.2968 61.3456 62.4426C61.6595 63.4559 61.6741 63.5654 61.1693 64.1145C61.1005 64.1895 61.0364 64.2577 60.9763 64.3216C60.5439 64.782 60.2024 65.1455 59.9196 66.0361C59.8375 66.2948 59.7311 66.4146 59.5379 66.6321C59.3834 66.8061 59.1909 67.0229 59.0134 67.3266C58.8008 67.6905 58.7305 68.041 58.6741 68.3225C58.6186 68.5995 58.587 68.7386 58.4783 68.8721C58.2307 69.176 57.7689 69.6174 57.2948 69.9186C56.8542 70.1984 56.5969 70.2366 56.5093 70.2314C56.4092 70.1241 56.0469 69.6545 55.4994 68.0295C55.3644 67.6287 55.1771 67.2162 54.996 66.8173C54.5967 65.9379 54.1839 65.0285 54.3847 64.407C54.4084 64.3337 54.4319 64.2621 54.4549 64.1921C54.7757 63.2143 55.0785 62.2909 54.5175 60.9465C54.3467 60.5371 54.0748 60.238 53.835 59.974C53.6799 59.8033 53.5041 59.6098 53.477 59.4984C53.444 59.3625 53.445 59.2057 53.4463 59.0241C53.4495 58.5343 53.4543 57.7941 52.7185 57.105C51.681 56.134 50.4713 56.4331 49.6707 56.6311C49.4248 56.6919 49.1925 56.7495 48.9866 56.7736C47.6696 56.928 46.4938 56.4311 45.7597 55.4096C44.9918 54.3411 44.8803 52.9033 45.4689 51.6573C45.7538 51.0544 46.1842 50.57 46.6826 50.0094C46.7914 49.8869 46.9013 49.7633 47.0112 49.6367C47.194 49.426 47.3952 49.1406 47.6079 48.8385C47.8619 48.478 48.3347 47.8067 48.54 47.679Z" stroke="url(#paint1_linear_312_82)" mask="url(#path-1-outside-1_312_82)"/>
<path d="M66.1871 74.3778L66.1871 74.3778L66.1516 74.3983C65.8234 74.5888 65.7116 75.0094 65.902 75.3379L66.1871 74.3778ZM66.1871 74.3778L66.1876 74.3776M66.1871 74.3778L66.1876 74.3776M66.1876 74.3776C66.5164 74.187 66.9369 74.2989 67.1273 74.627L66.1876 74.3776ZM66.8416 75.5874L66.8421 75.5871L66.8777 75.5666C67.2059 75.3762 67.3177 74.9555 67.1273 74.627L66.8416 75.5874ZM66.8416 75.5874C66.7326 75.6506 66.614 75.6805 66.4974 75.6805C66.2597 75.6805 66.0294 75.5574 65.902 75.3379L66.8416 75.5874Z" fill="url(#paint2_linear_312_82)" stroke="url(#paint3_linear_312_82)" stroke-width="0.5"/>
<path d="M69.1981 63.3403L69.198 63.3402L68.747 61.6401C68.747 61.6401 68.747 61.6401 68.747 61.6401C68.6748 61.368 68.4439 61.1674 68.1645 61.1339C67.8838 61.1012 67.6125 61.2416 67.4783 61.4887C67.3801 61.6697 67.2909 61.8629 67.2009 62.0581C67.2009 62.0581 67.2009 62.0581 67.2009 62.0581L67.1994 62.0612C67.1252 62.2222 67.0465 62.393 66.9655 62.5473C66.8852 62.7002 66.795 62.852 66.6945 62.9676L66.6945 62.9676C66.618 63.0556 66.5025 63.1277 66.4034 63.1832C66.2986 63.2419 66.1779 63.3002 66.0678 63.3534L66.0642 63.3551L66.0642 63.3551C65.5184 63.6185 64.8794 63.9358 64.6328 64.7221L64.6328 64.7221C64.4755 65.2229 64.5325 65.6161 64.5795 65.9332L64.5795 65.9333C64.5994 66.0679 64.6161 66.1842 64.6137 66.2906C64.6111 66.4096 64.5855 66.5093 64.5382 66.6203L64.5379 66.621L64.5288 66.6422C64.3786 66.9946 64.1784 67.4674 64.1049 67.9825C64.0321 68.4923 64.0861 69.0254 64.4283 69.5125L64.4283 69.5125C64.9422 70.2442 65.4533 70.4004 65.8171 70.4004H65.8179L69.1981 63.3403ZM69.1981 63.3403C69.2305 63.4622 69.2286 63.5909 69.1926 63.7122L69.1981 63.3403ZM68.0899 67.4286C68.0899 67.4286 68.0899 67.4286 68.0899 67.4286C67.7997 68.4066 67.4829 69.1195 67.134 69.6023C66.7883 70.0806 66.4222 70.3189 66.0267 70.3836L68.3296 67.4997L68.0899 67.4286ZM68.0899 67.4286L69.1926 63.7123L68.0899 67.4286ZM64.2237 69.6562C64.7792 70.4471 65.3632 70.6504 65.8171 70.6504L64.2237 69.6562ZM65.5531 68.7221C65.5763 68.7552 65.5981 68.7843 65.6182 68.8099L65.8218 69.0698L66.0167 68.8034C66.1926 68.5631 66.4679 68.0624 66.772 67.0375C66.772 67.0375 66.772 67.0375 66.772 67.0375L67.4814 64.6465L67.66 64.0446L67.1165 64.359C66.9628 64.4479 66.8096 64.5219 66.6619 64.5932L66.6617 64.5933C66.6617 64.5933 66.6617 64.5933 66.6617 64.5933C66.4985 64.6721 66.3484 64.7461 66.2341 64.8175C66.1764 64.8534 66.1193 64.8939 66.0711 64.94C66.0239 64.9851 65.9713 65.0487 65.9446 65.1336L65.5531 68.7221ZM65.9395 65.7318C65.9937 66.0984 66.0604 66.555 65.8031 67.159L65.9446 65.1336C65.8809 65.3363 65.9043 65.4944 65.9384 65.724L65.9395 65.7317C65.9395 65.7317 65.9395 65.7317 65.9395 65.7318Z" fill="url(#paint4_linear_312_82)" stroke="url(#paint5_linear_312_82)" stroke-width="0.5"/>
<path d="M56.1696 42.357L56.1694 42.3569C55.8114 42.2315 55.4188 42.42 55.2932 42.7781L56.1696 42.357ZM56.1696 42.357L56.2327 42.379M56.1696 42.357L56.2327 42.379M55.7774 43.6763L55.7775 43.6764C55.8532 43.7029 55.9298 43.7153 56.0051 43.7153C56.2892 43.7153 56.5546 43.5378 56.6538 43.2552L55.7774 43.6763ZM55.7774 43.6763L55.7143 43.6543C55.7143 43.6543 55.7143 43.6543 55.7143 43.6542M55.7774 43.6763L55.7143 43.6542M56.2327 42.379C56.2327 42.3791 56.2327 42.3791 56.2328 42.3791M56.2327 42.379L56.2328 42.3791M56.2328 42.3791C56.5909 42.5047 56.7794 42.8969 56.6538 43.2552L56.2328 42.3791ZM55.7143 43.6542C55.356 43.5286 55.1675 43.1364 55.2932 42.7781L55.7143 43.6542Z" fill="url(#paint6_linear_312_82)" stroke="url(#paint7_linear_312_82)" stroke-width="0.5"/>
</g>
<defs>
<filter id="filter0_d_312_82" x="-1" y="0" width="112" height="110" filterUnits="userSpaceOnUse" color-interpolation-filters="sRGB">
<feFlood flood-opacity="0" result="BackgroundImageFix"/>
<feColorMatrix in="SourceAlpha" type="matrix" values="0 0 0 0 0 0 0 0 0 0 0 0 0 0 0 0 0 0 127 0" result="hardAlpha"/>
<feOffset/>
<feGaussianBlur stdDeviation="15"/>
<feColorMatrix type="matrix" values="0 0 0 0 0.752941 0 0 0 0 0.615686 0 0 0 0 0.301961 0 0 0 0.5 0"/>
<feBlend mode="normal" in2="BackgroundImageFix" result="effect1_dropShadow_312_82"/>
<feBlend mode="normal" in="SourceGraphic" in2="effect1_dropShadow_312_82" result="shape"/>
</filter>
<linearGradient id="paint0_linear_312_82" x1="46.6957" y1="33.0009" x2="89.2116" y2="62.0469" gradientUnits="userSpaceOnUse">
<stop stop-color="#E3C070"/>
<stop offset="1" stop-color="#B0924C"/>
</linearGradient>
<linearGradient id="paint1_linear_312_82" x1="46.6957" y1="33.0009" x2="89.2116" y2="62.0469" gradientUnits="userSpaceOnUse">
<stop stop-color="#E3C070"/>
<stop offset="1" stop-color="#B0924C"/>
</linearGradient>
<linearGradient id="paint2_linear_312_82" x1="66.184" y1="74.1136" x2="67.8681" y2="75.2734" gradientUnits="userSpaceOnUse">
<stop stop-color="#E3C070"/>
<stop offset="1" stop-color="#B0924C"/>
</linearGradient>
<linearGradient id="paint3_linear_312_82" x1="66.184" y1="74.1136" x2="67.8681" y2="75.2734" gradientUnits="userSpaceOnUse">
<stop stop-color="#E3C070"/>
<stop offset="1" stop-color="#B0924C"/>
</linearGradient>
<linearGradient id="paint4_linear_312_82" x1="65.6723" y1="61.2863" x2="72.0171" y2="63.7903" gradientUnits="userSpaceOnUse">
<stop stop-color="#E3C070"/>
<stop offset="1" stop-color="#B0924C"/>
</linearGradient>
<linearGradient id="paint5_linear_312_82" x1="65.6723" y1="61.2863" x2="72.0171" y2="63.7903" gradientUnits="userSpaceOnUse">
<stop stop-color="#E3C070"/>
<stop offset="1" stop-color="#B0924C"/>
</linearGradient>
<linearGradient id="paint6_linear_312_82" x1="55.6381" y1="42.1471" x2="57.3315" y2="43.3292" gradientUnits="userSpaceOnUse">
<stop stop-color="#E3C070"/>
<stop offset="1" stop-color="#B0924C"/>
</linearGradient>
<linearGradient id="paint7_linear_312_82" x1="55.6381" y1="42.1471" x2="57.3315" y2="43.3292" gradientUnits="userSpaceOnUse">
<stop stop-color="#E3C070"/>
<stop offset="1" stop-color="#B0924C"/>
</linearGradient>
</defs>
</svg>
