<svg width="37" height="37" viewBox="0 0 37 37" fill="none" xmlns="http://www.w3.org/2000/svg">
<g filter="url(#filter0_d_1992_3660)">
<path d="M18.5 27C23.1944 27 27 23.1944 27 18.5C27 13.8056 23.1944 10 18.5 10C13.8056 10 10 13.8056 10 18.5C10 23.1944 13.8056 27 18.5 27Z" fill="white"/>
</g>
<path d="M19.4022 17.6203V15.9103C19.9629 16.0468 20.511 16.3067 20.9595 16.7157L20.9613 16.7132C20.9948 16.7397 21.0355 16.758 21.0818 16.758C21.1426 16.758 21.1948 16.7287 21.2309 16.6856L21.2334 16.6861L21.9583 15.6699L21.9566 15.6691C21.9863 15.6349 22.0061 15.5916 22.0061 15.5429C22.0061 15.4854 21.98 15.435 21.9402 15.3993C21.268 14.7818 20.4097 14.411 19.4022 14.2996V13.3176H19.402C19.402 13.2098 19.3143 13.1226 19.2059 13.1226H18.4274C18.3191 13.1226 18.2313 13.2098 18.2313 13.3176V14.2747C16.5494 14.4481 15.5528 15.5138 15.5528 16.7653C15.5528 18.4504 16.9482 18.9336 18.2313 19.2435V21.1639C17.4074 21.017 16.7302 20.5923 16.2695 20.1169C16.2662 20.1133 16.2628 20.1103 16.2593 20.1071L16.2504 20.0985L16.249 20.1003C16.2149 20.0712 16.1717 20.0549 16.1268 20.0541C16.0918 20.0545 16.0575 20.0642 16.0277 20.0823C15.9978 20.1004 15.9734 20.1262 15.957 20.157L15.9547 20.1566L15.2532 21.1924L15.254 21.1941C15.2225 21.2289 15.2048 21.2739 15.2043 21.3206C15.2043 21.3827 15.2353 21.4355 15.2805 21.4712L15.2787 21.4739C15.9639 22.1553 16.9232 22.6509 18.2313 22.7625V23.6826C18.2313 23.7904 18.3191 23.8777 18.4274 23.8777H19.2059C19.3143 23.8777 19.402 23.7902 19.402 23.6826H19.4022V22.7624C21.2336 22.5763 22.1431 21.5111 22.1431 20.1355C22.1431 18.4382 20.6979 17.9423 19.4022 17.6203ZM18.2311 17.3351C17.7204 17.1742 17.3715 16.9882 17.3715 16.6288C17.3715 16.2076 17.683 15.9103 18.2311 15.8359V17.3351ZM19.4022 21.1887V19.5285C19.9505 19.7018 20.3367 19.9004 20.3367 20.309C20.3367 20.7057 20.0376 21.0647 19.4022 21.1887Z" fill="#313131"/>
<defs>
<filter id="filter0_d_1992_3660" x="0" y="0" width="37" height="37" filterUnits="userSpaceOnUse" color-interpolation-filters="sRGB">
<feFlood flood-opacity="0" result="BackgroundImageFix"/>
<feColorMatrix in="SourceAlpha" type="matrix" values="0 0 0 0 0 0 0 0 0 0 0 0 0 0 0 0 0 0 127 0" result="hardAlpha"/>
<feOffset/>
<feGaussianBlur stdDeviation="5"/>
<feColorMatrix type="matrix" values="0 0 0 0 1 0 0 0 0 1 0 0 0 0 1 0 0 0 0.41 0"/>
<feBlend mode="normal" in2="BackgroundImageFix" result="effect1_dropShadow_1992_3660"/>
<feBlend mode="normal" in="SourceGraphic" in2="effect1_dropShadow_1992_3660" result="shape"/>
</filter>
</defs>
</svg>
