<svg width="80" height="81" viewBox="0 0 80 81" fill="none" xmlns="http://www.w3.org/2000/svg">
<g filter="url(#filter0_d_320:10)">
<ellipse cx="39.7491" cy="40.1604" rx="19.7491" ry="20.1604" fill="#343437"/>
<path d="M49.4321 45.3168C49.4321 45.2331 49.3501 45.2331 49.3501 45.1494C49.0221 44.4799 48.2843 43.643 47.3005 42.7225C46.8087 42.304 46.5627 41.9693 46.3987 41.8019C46.1528 41.4671 46.1528 41.2161 46.2348 40.8813C46.3168 40.6302 46.6447 40.2118 47.2186 39.4586C47.5465 39.0401 47.7104 38.7891 47.9564 38.538C49.1861 36.8642 49.76 35.7763 49.596 35.2741L49.514 35.1905C49.4321 35.1068 49.3501 35.0231 49.1861 35.0231C49.0221 34.9394 48.7762 34.9394 48.5303 35.0231H45.415C45.333 35.0231 45.333 35.0231 45.169 35.0231C45.087 35.0231 45.0051 35.0231 45.0051 35.0231H44.9231H44.8411L44.7591 35.1068C44.6771 35.1905 44.6771 35.1905 44.6771 35.2741C44.3492 36.1947 43.9393 36.9479 43.5294 37.7848C43.2834 38.2033 43.0375 38.6217 42.7916 38.9565C42.5456 39.2912 42.3816 39.5423 42.2177 39.7097C42.0537 39.877 41.8898 39.9607 41.8078 40.1281C41.7258 40.2118 41.5618 40.2955 41.5618 40.2118C41.4799 40.2118 41.3979 40.2118 41.3979 40.1281C41.3159 40.0444 41.2339 39.9607 41.1519 39.877C41.07 39.7934 41.0699 39.626 40.988 39.4586C40.988 39.2912 40.988 39.1238 40.988 39.0401C40.988 38.9565 40.988 38.7054 40.988 38.538C40.988 38.287 40.988 38.1196 40.988 38.0359C40.988 37.7848 40.988 37.4501 40.988 37.1153C40.988 36.7806 40.988 36.5295 40.988 36.3621C40.988 36.1947 40.988 35.9437 40.988 35.7763C40.988 35.5252 40.988 35.3578 40.988 35.2741C40.988 35.1905 40.906 35.0231 40.906 34.9394C40.824 34.8557 40.742 34.772 40.66 34.6883C40.5781 34.6046 40.4141 34.6046 40.3321 34.521C39.9222 34.4373 39.4303 34.3536 38.8565 34.3536C37.5448 34.3536 36.643 34.4373 36.315 34.6046C36.1511 34.6883 35.9871 34.772 35.9051 34.9394C35.7412 35.1068 35.7412 35.1905 35.8231 35.1905C36.233 35.2742 36.561 35.4415 36.7249 35.6926L36.8069 35.86C36.8889 35.9437 36.8889 36.111 36.9709 36.3621C37.0529 36.6132 37.0529 36.8642 37.0529 37.199C37.0529 37.7011 37.0529 38.2033 37.0529 38.538C37.0529 38.9565 36.9709 39.2075 36.9709 39.4586C36.9709 39.7097 36.8889 39.877 36.8069 39.9607C36.7249 40.1281 36.7249 40.2118 36.643 40.2118C36.643 40.2118 36.6429 40.2955 36.561 40.2955C36.479 40.2955 36.397 40.3792 36.233 40.3792C36.1511 40.3792 35.9871 40.2955 35.9051 40.2118C35.7412 40.1281 35.5772 39.9607 35.4952 39.7934C35.3313 39.626 35.1673 39.3749 35.0033 39.0401C34.8394 38.7054 34.5934 38.3706 34.4294 37.8685L34.2655 37.5338C34.1835 37.3664 34.0196 37.0316 33.8556 36.6132C33.6916 36.1947 33.5277 35.86 33.3637 35.4415C33.2817 35.2742 33.1997 35.1905 33.1178 35.1068H33.0358C33.0358 35.1068 32.9538 35.0231 32.8718 35.0231C32.7898 35.0231 32.7078 34.9394 32.6259 34.9394H29.6745C29.3466 34.9394 29.1826 35.0231 29.1007 35.1068L29.0187 35.1905C29.0187 35.1905 29.0187 35.2742 29.0187 35.3578C29.0187 35.4415 29.0187 35.5252 29.1007 35.6926C29.5106 36.6969 30.0025 37.7011 30.4943 38.7054C30.9862 39.626 31.4781 40.4629 31.8061 41.0487C32.216 41.6345 32.5439 42.2203 32.9538 42.7225C33.3637 43.2246 33.6096 43.5594 33.6916 43.7267C33.8556 43.8941 33.9376 43.9778 34.0195 44.0615L34.2655 44.3126C34.4295 44.4799 34.6754 44.731 35.0033 44.9821C35.3312 45.2331 35.7412 45.4842 36.1511 45.7353C36.561 45.9863 37.0529 46.1537 37.5448 46.3211C38.1186 46.4885 38.6105 46.5722 39.1024 46.4885H40.3321C40.5781 46.4885 40.742 46.4048 40.906 46.2374L40.988 46.1537C40.988 46.07 41.0699 46.07 41.0699 45.9863C41.0699 45.9026 41.0699 45.819 41.0699 45.6516C41.0699 45.3168 41.07 45.0658 41.1519 44.8147C41.2339 44.5636 41.2339 44.3963 41.3159 44.2289C41.3979 44.0615 41.4799 43.9778 41.5618 43.8941C41.6438 43.8104 41.7258 43.7267 41.7258 43.7267H41.8078C41.9717 43.643 42.2177 43.7267 42.3817 43.8941C42.6276 44.0615 42.8735 44.3126 43.0375 44.5636C43.2015 44.8147 43.4474 45.0658 43.7753 45.4005C44.1033 45.7353 44.3492 45.9863 44.5132 46.07L44.7591 46.2374C44.9231 46.3211 45.087 46.4048 45.333 46.4885C45.5789 46.5722 45.7429 46.5722 45.9068 46.5722L48.6942 46.4885C48.9402 46.4885 49.1861 46.4048 49.3501 46.3211C49.514 46.2374 49.596 46.1537 49.596 45.9863C49.596 45.9026 49.596 45.7353 49.596 45.6516C49.432 45.4842 49.4321 45.4005 49.4321 45.3168Z" fill="#CCCCCC"/>
</g>
<defs>
<filter id="filter0_d_320:10" x="0" y="0" width="79.4982" height="80.3209" filterUnits="userSpaceOnUse" color-interpolation-filters="sRGB">
<feFlood flood-opacity="0" result="BackgroundImageFix"/>
<feColorMatrix in="SourceAlpha" type="matrix" values="0 0 0 0 0 0 0 0 0 0 0 0 0 0 0 0 0 0 127 0" result="hardAlpha"/>
<feOffset/>
<feGaussianBlur stdDeviation="10"/>
<feColorMatrix type="matrix" values="0 0 0 0 0 0 0 0 0 0 0 0 0 0 0 0 0 0 0.07 0"/>
<feBlend mode="normal" in2="BackgroundImageFix" result="effect1_dropShadow_320:10"/>
<feBlend mode="normal" in="SourceGraphic" in2="effect1_dropShadow_320:10" result="shape"/>
</filter>
</defs>
</svg>
