<svg width="80" height="81" viewBox="0 0 80 81" fill="none" xmlns="http://www.w3.org/2000/svg">
<g filter="url(#filter0_d_320:13)">
<ellipse cx="39.7491" cy="40.1604" rx="19.7491" ry="20.1604" fill="#343437"/>
<path d="M48.353 39.0648C48.353 38.6739 48.2891 38.2177 48.2891 37.6964C48.2253 37.1751 48.1614 36.6537 48.0976 36.1976C47.9699 35.6763 47.7784 35.2853 47.3954 34.9595C47.0762 34.6336 46.6294 34.4381 46.1826 34.373C44.7143 34.1775 42.5439 34.1123 39.6075 34.1123C36.6711 34.1123 34.4368 34.1775 33.0325 34.373C32.5856 34.4381 32.1388 34.6336 31.8196 34.9595C31.5004 35.2853 31.2451 35.6763 31.1174 36.1976C30.9897 36.6537 30.9259 37.1099 30.9259 37.6964C30.8621 38.2177 30.8621 38.6739 30.8621 39.0648C30.8621 39.4558 30.8621 39.912 30.8621 40.5636C30.8621 41.2153 30.8621 41.7366 30.8621 42.0624C30.8621 42.4534 30.9259 42.9096 30.9259 43.4309C30.9897 43.9522 31.0536 44.4735 31.1174 44.9297C31.2451 45.451 31.4366 45.842 31.8196 46.1678C32.1388 46.4937 32.5856 46.6892 33.0325 46.7543C34.5007 46.9498 36.6711 47.015 39.6075 47.015C42.5439 47.015 44.7782 46.9498 46.1826 46.7543C46.6294 46.6892 47.0762 46.4937 47.3954 46.1678C47.7146 45.842 47.9699 45.451 48.0976 44.9297C48.2253 44.4735 48.2891 44.0174 48.2891 43.4309C48.353 42.9096 48.353 42.4534 48.353 42.0624C48.353 41.6715 48.353 41.2153 48.353 40.5636C48.353 39.912 48.353 39.3907 48.353 39.0648ZM42.9908 41.085L37.9478 44.2781C37.884 44.3432 37.7563 44.4084 37.6286 44.4084C37.5009 44.4084 37.4371 44.4084 37.3094 44.3432C37.1179 44.2129 36.9903 44.0174 36.9903 43.7567V37.3054C36.9903 37.0447 37.1179 36.8492 37.3094 36.7189C37.5009 36.5886 37.7563 36.5886 37.9478 36.7189L42.9908 39.912C43.1823 40.0423 43.31 40.2378 43.31 40.4333C43.31 40.6288 43.1823 40.9546 42.9908 41.085Z" fill="#CCCCCC"/>
</g>
<defs>
<filter id="filter0_d_320:13" x="0" y="0" width="79.4982" height="80.3209" filterUnits="userSpaceOnUse" color-interpolation-filters="sRGB">
<feFlood flood-opacity="0" result="BackgroundImageFix"/>
<feColorMatrix in="SourceAlpha" type="matrix" values="0 0 0 0 0 0 0 0 0 0 0 0 0 0 0 0 0 0 127 0" result="hardAlpha"/>
<feOffset/>
<feGaussianBlur stdDeviation="10"/>
<feColorMatrix type="matrix" values="0 0 0 0 0 0 0 0 0 0 0 0 0 0 0 0 0 0 0.07 0"/>
<feBlend mode="normal" in2="BackgroundImageFix" result="effect1_dropShadow_320:13"/>
<feBlend mode="normal" in="SourceGraphic" in2="effect1_dropShadow_320:13" result="shape"/>
</filter>
</defs>
</svg>
